<svg width="223" height="324" viewBox="0 0 223 324" fill="none" xmlns="http://www.w3.org/2000/svg">
<g clip-path="url(#clip0_3_9)">
<path d="M222.666 314.496C222.666 319.535 218.548 323.667 213.497 323.667H9.49074C4.4524 323.667 0.333618 319.535 0.333618 314.496V9.50565C0.333618 4.4596 4.4524 0.332794 9.49074 0.332794H213.497C218.548 0.332794 222.666 4.4596 222.666 9.50565V314.496Z" fill="white" stroke="black" stroke-width="0.622458"/>
<path fill-rule="evenodd" clip-rule="evenodd" d="M36.8838 43.5417C82.9066 43.5417 128.93 43.5417 174.952 43.5417C176.037 43.5417 186.468 43.0449 186.468 43.9342C186.468 48.9242 186.468 53.9135 186.468 58.9035C186.468 83.6728 186.468 108.442 186.468 133.211C186.468 181.277 186.468 229.344 186.468 277.41C186.468 277.752 186.7 279.312 186.278 279.312C184.214 279.312 182.152 279.312 180.09 279.312C169.38 279.312 158.671 279.312 147.963 279.312C118.902 279.312 89.8421 279.312 60.7819 279.312C53.1178 279.312 45.4538 279.312 37.7903 279.312C35.8398 279.312 36.8838 273.887 36.8838 272.336C36.8838 250.702 36.8838 229.067 36.8838 207.433C36.8838 155.244 36.8838 103.055 36.8838 50.8657C36.8838 48.4241 36.8838 45.9833 36.8838 43.5417Z" fill="#0A0A0C" stroke="#0A0A0C" stroke-width="0.0334464" stroke-miterlimit="10"/>
<path fill-rule="evenodd" clip-rule="evenodd" d="M82.2927 128.295C88.2604 128.295 141.057 127.875 141.057 128.71C141.057 151.083 141.057 173.457 141.057 195.831C141.057 196.504 82.2927 195.912 82.2927 196.082C82.2927 173.833 82.2927 151.585 82.2927 129.337C82.2927 128.989 82.2927 128.642 82.2927 128.295Z" fill="white" stroke="white" stroke-width="0.0334464" stroke-miterlimit="10"/>
<path fill-rule="evenodd" clip-rule="evenodd" d="M111.676 122.131C105.888 128.809 100.101 135.486 94.3128 142.164C90.4104 146.667 86.508 151.169 82.6049 155.672C81.6991 156.717 76.9501 160.744 76.9501 162.196C76.9501 163.531 81.3191 167.237 82.1507 168.197C86.2049 172.875 90.2592 177.551 94.3128 182.229C100.101 188.906 105.888 195.584 111.676 202.262C117.463 195.584 123.25 188.906 129.038 182.229C132.941 177.726 136.843 173.223 140.746 168.721C141.651 167.675 146.401 163.649 146.401 162.196C146.401 160.861 142.032 157.156 141.2 156.196C137.147 151.519 133.092 146.842 129.038 142.164C123.25 135.486 117.463 128.809 111.676 122.131Z" fill="white" stroke="white" stroke-width="0.0334464" stroke-miterlimit="10"/>
<path fill-rule="evenodd" clip-rule="evenodd" d="M84.9641 131.377C96.0229 131.377 107.082 131.377 118.14 131.377C124.089 131.377 130.038 131.377 135.988 131.377C139.065 131.377 138.386 131.639 138.386 134.727C138.386 148.268 138.386 161.809 138.386 175.351C138.386 180.653 138.386 185.954 138.386 191.256C138.386 194.058 136.761 193.016 134.079 193.016C122.416 193.016 110.753 193.016 99.0911 193.016C94.8159 193.016 90.5401 193.016 86.2649 193.016C84.1599 193.016 84.9641 191.654 84.9641 189.667C84.9641 170.236 84.9641 150.807 84.9641 131.377Z" fill="#0A0A0C" stroke="#0A0A0C" stroke-width="0.0334464" stroke-miterlimit="10"/>
<path fill-rule="evenodd" clip-rule="evenodd" d="M111.676 125.213C106.435 131.26 101.194 137.307 95.9532 143.354C92.217 147.664 88.4807 151.975 84.7445 156.286C83.9247 157.232 79.6215 160.881 79.6215 162.196C79.6215 163.396 83.5454 166.723 84.2922 167.585C87.9763 171.836 91.6604 176.087 95.3445 180.337C100.788 186.618 106.232 192.899 111.676 199.18C116.917 193.132 122.158 187.086 127.397 181.04C131.134 176.729 134.871 172.419 138.607 168.108C139.427 167.161 143.729 163.512 143.729 162.196C143.729 160.997 139.806 157.669 139.059 156.808C135.374 152.557 131.691 148.307 128.007 144.056C122.563 137.775 117.119 131.494 111.676 125.213Z" fill="#0A0A0C" stroke="#0A0A0C" stroke-width="0.0334464" stroke-miterlimit="10"/>
<path fill-rule="evenodd" clip-rule="evenodd" d="M90.3062 137.541C101.907 137.541 113.507 137.541 125.107 137.541C126.555 137.541 133.044 136.562 133.044 138.331C133.044 143.56 133.044 148.788 133.044 154.016C133.044 156.316 133.072 186.853 133.018 186.853C121.183 186.853 109.349 186.853 97.514 186.853C96.1011 186.853 90.3062 187.818 90.3062 186.061C90.3062 180.834 90.3062 175.605 90.3062 170.377C90.3062 159.432 90.3062 148.487 90.3062 137.541Z" fill="white" stroke="white" stroke-width="0.0334464" stroke-miterlimit="10"/>
<path fill-rule="evenodd" clip-rule="evenodd" d="M111.676 131.377C107.224 136.514 102.772 141.65 98.3202 146.787C95.336 150.23 92.3518 153.673 89.3677 157.116C88.6625 157.929 84.9641 161.066 84.9641 162.196C84.9641 163.211 88.2813 166.024 88.9121 166.752C92.0482 170.37 95.1842 173.989 98.3202 177.606C102.772 182.743 107.224 187.88 111.676 193.016C116.128 187.88 120.579 182.743 125.03 177.606C128.015 174.163 131 170.721 133.982 167.278C134.689 166.464 138.386 163.327 138.386 162.196C138.386 161.183 135.069 158.369 134.438 157.641C131.302 154.023 128.166 150.405 125.03 146.787C120.579 141.65 116.128 136.514 111.676 131.377Z" fill="white" stroke="white" stroke-width="0.0334464" stroke-miterlimit="10"/>
<path fill-rule="evenodd" clip-rule="evenodd" d="M92.9775 140.623C104.373 140.623 115.768 140.623 127.163 140.623C131.278 140.623 130.373 140.987 130.373 145.11C130.373 152.033 130.373 158.956 130.373 165.878C130.373 171.544 130.373 177.209 130.373 182.873C130.373 184.866 123.38 183.77 121.748 183.77C114.524 183.77 107.297 183.77 100.072 183.77C97.5512 183.77 92.9775 185.242 92.9775 182.208C92.9775 168.347 92.9775 154.485 92.9775 140.623Z" fill="#0A0A0C" stroke="#0A0A0C" stroke-width="0.0334464" stroke-miterlimit="10"/>
<path fill-rule="evenodd" clip-rule="evenodd" d="M111.676 134.459C107.771 138.964 103.866 143.47 99.9612 147.975C97.1432 151.227 94.3253 154.479 91.5066 157.73C90.8875 158.444 87.6355 161.203 87.6355 162.196C87.6355 163.074 90.5082 165.511 91.0537 166.141C93.8195 169.331 96.5847 172.522 99.3499 175.712C103.459 180.453 107.567 185.194 111.676 189.934C115.581 185.429 119.486 180.923 123.391 176.418C126.209 173.167 129.027 169.915 131.845 166.663C132.464 165.949 135.716 163.19 135.716 162.196C135.716 161.32 132.843 158.882 132.298 158.253C129.532 155.061 126.767 151.871 124.001 148.68C119.892 143.94 115.784 139.2 111.676 134.459Z" fill="#0A0A0C" stroke="#0A0A0C" stroke-width="0.0334464" stroke-miterlimit="10"/>
<path fill-rule="evenodd" clip-rule="evenodd" d="M111.676 137.541C108.215 141.534 104.754 145.527 101.293 149.52C98.8598 152.328 96.4257 155.136 93.9915 157.944C93.4018 158.625 90.3062 161.251 90.3062 162.196C90.3062 163.024 93.0172 165.324 93.5327 165.919C95.918 168.671 98.3032 171.423 100.688 174.176C104.351 178.401 108.014 182.627 111.676 186.853C115.136 182.859 118.597 178.866 122.059 174.873C124.491 172.065 126.926 169.257 129.359 166.45C129.949 165.768 133.044 163.143 133.044 162.196C133.044 161.37 130.333 159.068 129.819 158.474C127.434 155.722 125.047 152.97 122.662 150.217C119.001 145.992 115.338 141.767 111.676 137.541Z" fill="white" stroke="white" stroke-width="0.0334464" stroke-miterlimit="10"/>
<path fill-rule="evenodd" clip-rule="evenodd" d="M95.6482 143.704C106.287 143.704 116.926 143.704 127.564 143.704C127.843 143.704 127.702 173.956 127.702 176.842C127.702 177.426 128.119 180.232 127.702 180.688C127.236 181.198 123.352 180.688 122.695 180.688C115.586 180.688 108.476 180.688 101.368 180.688C99.5076 180.688 97.647 180.688 95.787 180.688C95.4749 180.688 95.6482 177.757 95.6482 177.415C95.6482 170.518 95.6482 163.62 95.6482 156.723C95.6482 152.384 95.6482 148.044 95.6482 143.704Z" fill="white" stroke="white" stroke-width="0.0334464" stroke-miterlimit="10"/>
<path fill-rule="evenodd" clip-rule="evenodd" d="M111.676 143.704C109.004 146.787 106.334 149.869 103.662 152.95C101.826 155.069 99.9892 157.188 98.1527 159.307C97.7545 159.767 95.6482 161.556 95.6482 162.196C95.6482 162.838 97.7545 164.627 98.1527 165.086C99.9892 167.204 101.826 169.323 103.662 171.442C106.334 174.525 109.004 177.606 111.676 180.688C114.348 177.606 117.017 174.525 119.689 171.442C121.525 169.323 123.362 167.204 125.197 165.086C125.596 164.627 127.702 162.838 127.702 162.196C127.702 161.556 125.596 159.767 125.197 159.307C123.362 157.188 121.525 155.069 119.689 152.95C117.017 149.869 114.348 146.787 111.676 143.704Z" fill="#0A0A0C"/>
<path fill-rule="evenodd" clip-rule="evenodd" d="M151.743 125.213C149.962 125.213 148.182 125.213 146.401 125.213C148.182 127.268 149.962 129.323 151.743 131.377C151.743 129.323 151.743 127.268 151.743 125.213Z" fill="white" stroke="white" stroke-width="0.0334464" stroke-miterlimit="10"/>
<path fill-rule="evenodd" clip-rule="evenodd" d="M151.743 134.459C149.962 132.404 148.182 130.349 146.401 128.295C146.401 130.292 146.401 132.289 146.401 134.287C146.401 134.648 151.054 134.459 151.743 134.459Z" fill="white" stroke="white" stroke-width="0.0334464" stroke-miterlimit="10"/>
<path fill-rule="evenodd" clip-rule="evenodd" d="M71.6088 125.213C73.3892 125.213 75.1697 125.213 76.9501 125.213C75.1697 127.268 73.3892 129.323 71.6088 131.377C71.6088 129.323 71.6088 127.268 71.6088 125.213Z" fill="white" stroke="white" stroke-width="0.0334464" stroke-miterlimit="10"/>
<path fill-rule="evenodd" clip-rule="evenodd" d="M71.6088 134.459C73.3892 132.404 75.1697 130.349 76.9501 128.295C76.9501 130.292 76.9501 132.289 76.9501 134.287C76.9501 134.648 72.2976 134.459 71.6088 134.459Z" fill="white" stroke="white" stroke-width="0.0334464" stroke-miterlimit="10"/>
<path fill-rule="evenodd" clip-rule="evenodd" d="M76.9501 189.934C75.1697 189.934 73.3892 189.934 71.6088 189.934C73.3892 191.989 75.1697 194.044 76.9501 196.097C76.9501 194.044 76.9501 191.989 76.9501 189.934Z" fill="white" stroke="white" stroke-width="0.0334464" stroke-miterlimit="10"/>
<path fill-rule="evenodd" clip-rule="evenodd" d="M76.9501 199.18C75.1697 197.125 73.3892 195.07 71.6088 193.016C71.6088 195.013 71.6088 197.01 71.6088 199.008C71.6088 199.37 76.2619 199.18 76.9501 199.18Z" fill="white" stroke="white" stroke-width="0.0334464" stroke-miterlimit="10"/>
<path fill-rule="evenodd" clip-rule="evenodd" d="M146.401 189.934C148.182 189.934 149.962 189.934 151.743 189.934C149.962 191.989 148.182 194.044 146.401 196.097C146.401 194.044 146.401 191.989 146.401 189.934Z" fill="white" stroke="white" stroke-width="0.0334464" stroke-miterlimit="10"/>
<path fill-rule="evenodd" clip-rule="evenodd" d="M146.401 199.18C148.182 197.125 149.962 195.07 151.743 193.016C151.743 195.013 151.743 197.01 151.743 199.008C151.743 199.37 147.089 199.18 146.401 199.18Z" fill="white" stroke="white" stroke-width="0.0334464" stroke-miterlimit="10"/>
<path fill-rule="evenodd" clip-rule="evenodd" d="M76.9501 168.361C75.1697 168.361 73.3892 168.361 71.6088 168.361C73.3892 170.416 75.1697 172.47 76.9501 174.525C76.9501 172.47 76.9501 170.416 76.9501 168.361Z" fill="white" stroke="white" stroke-width="0.0334464" stroke-miterlimit="10"/>
<path fill-rule="evenodd" clip-rule="evenodd" d="M76.9501 177.606C75.1697 175.552 73.3892 173.497 71.6088 171.442C71.6088 173.44 71.6088 175.436 71.6088 177.433C71.6088 177.796 76.2619 177.606 76.9501 177.606Z" fill="white" stroke="white" stroke-width="0.0334464" stroke-miterlimit="10"/>
<path fill-rule="evenodd" clip-rule="evenodd" d="M71.6088 146.787C73.3892 146.787 75.1697 146.787 76.9501 146.787C75.1697 148.841 73.3892 150.896 71.6088 152.95C71.6088 150.896 71.6088 148.841 71.6088 146.787Z" fill="white" stroke="white" stroke-width="0.0334464" stroke-miterlimit="10"/>
<path fill-rule="evenodd" clip-rule="evenodd" d="M71.6088 156.033C73.3892 153.978 75.1697 151.924 76.9501 149.869C76.9501 151.866 76.9501 153.863 76.9501 155.86C76.9501 156.222 72.2976 156.033 71.6088 156.033Z" fill="white" stroke="white" stroke-width="0.0334464" stroke-miterlimit="10"/>
<path fill-rule="evenodd" clip-rule="evenodd" d="M151.743 146.787C149.962 146.787 148.182 146.787 146.401 146.787C148.182 148.841 149.962 150.896 151.743 152.95C151.743 150.896 151.743 148.841 151.743 146.787Z" fill="white" stroke="white" stroke-width="0.0334464" stroke-miterlimit="10"/>
<path fill-rule="evenodd" clip-rule="evenodd" d="M151.743 156.033C149.962 153.978 148.182 151.924 146.401 149.869C146.401 151.866 146.401 153.863 146.401 155.86C146.401 156.222 151.054 156.033 151.743 156.033Z" fill="white" stroke="white" stroke-width="0.0334464" stroke-miterlimit="10"/>
<path fill-rule="evenodd" clip-rule="evenodd" d="M146.401 168.361C148.182 168.361 149.962 168.361 151.743 168.361C149.962 170.416 148.182 172.47 146.401 174.525C146.401 172.47 146.401 170.416 146.401 168.361Z" fill="white" stroke="white" stroke-width="0.0334464" stroke-miterlimit="10"/>
<path fill-rule="evenodd" clip-rule="evenodd" d="M146.401 177.606C148.182 175.552 149.962 173.497 151.743 171.442C151.743 173.44 151.743 175.436 151.743 177.433C151.743 177.796 147.089 177.606 146.401 177.606Z" fill="white" stroke="white" stroke-width="0.0334464" stroke-miterlimit="10"/>
<path fill-rule="evenodd" clip-rule="evenodd" d="M93.044 33.1399C91.9524 30.437 90.7975 27.6838 90.0487 24.8596C89.3736 22.3144 88.8359 16.1007 92.2209 14.879C95.4683 13.7081 96.6485 19.3246 96.6062 21.5314C96.5423 24.8466 94.9671 28.2334 93.781 31.2806C93.5399 31.9013 93.2936 32.5239 93.044 33.1399Z" fill="#0A0A0C"/>
<path fill-rule="evenodd" clip-rule="evenodd" d="M93.027 33.2012C90.3426 32.0708 87.3539 30.9631 84.9778 29.2465C82.8688 27.7223 79.51 23.205 81.4696 20.442C83.4476 17.653 87.5748 20.8495 88.9082 22.7336C90.821 25.4346 91.7197 29.1292 92.7239 32.2461C92.8263 32.5636 92.9266 32.885 93.027 33.2012Z" fill="#0A0A0C"/>
<path fill-rule="evenodd" clip-rule="evenodd" d="M93.0355 33.2012C95.7199 32.0701 98.708 30.9631 101.085 29.2465C103.194 27.7229 106.552 23.2043 104.593 20.442C102.615 17.6523 98.487 20.8495 97.1537 22.7336C95.2037 25.4881 94.2907 29.2752 93.2708 32.4567C93.1919 32.7038 93.1131 32.9554 93.0355 33.2012Z" fill="#0A0A0C"/>
<path fill-rule="evenodd" clip-rule="evenodd" d="M86.1574 33.5715C83.9852 32.9268 81.295 33.1399 79.9069 35.1531C79.1672 36.2262 78.999 40.3843 81.3537 39.5759C81.7642 39.4351 82.0999 37.6123 82.6004 37.1924C83.5545 36.3918 85.3414 36.4166 86.5002 36.324C88.0591 36.2008 89.6779 36.3671 91.2101 36.1552C91.212 36.1461 91.2146 36.1376 91.2192 36.1291C89.7672 35.0038 87.9163 34.1159 86.1574 33.5715Z" fill="#0A0A0C"/>
<path fill-rule="evenodd" clip-rule="evenodd" d="M99.7983 33.5715C101.97 32.9261 104.661 33.1399 106.048 35.1531C106.788 36.2262 106.957 40.385 104.601 39.5759C104.191 39.4351 103.856 37.6129 103.355 37.1924C102.402 36.3918 100.614 36.4166 99.4555 36.324C97.896 36.2008 96.2778 36.3671 94.745 36.1552C94.743 36.1461 94.7404 36.1376 94.7358 36.1291C96.1885 35.0038 98.0387 34.1159 99.7983 33.5715Z" fill="#0A0A0C"/>
<path fill-rule="evenodd" clip-rule="evenodd" d="M91.197 39.5603C91.5144 42.2756 96.221 40.9555 93.97 37.2185C92.389 34.5925 91.4831 37.0497 91.197 39.5603Z" fill="#0A0A0C"/>
<path fill-rule="evenodd" clip-rule="evenodd" d="M130.439 33.1399C129.347 30.4376 128.192 27.6832 127.444 24.8596C126.769 22.3144 126.232 16.1014 129.616 14.879C132.864 13.7068 134.045 19.3252 134.002 21.5314C133.938 24.8472 132.363 28.2334 131.177 31.2806C130.935 31.9012 130.69 32.5232 130.439 33.1399Z" fill="#0A0A0C"/>
<path fill-rule="evenodd" clip-rule="evenodd" d="M130.423 33.2012C127.739 32.0707 124.749 30.9631 122.374 29.2465C120.265 27.7223 116.906 23.2043 118.865 20.442C120.844 17.6537 124.97 20.8488 126.305 22.7336C128.217 25.4346 129.115 29.1298 130.119 32.2461C130.222 32.5636 130.322 32.885 130.423 33.2012Z" fill="#0A0A0C"/>
<path fill-rule="evenodd" clip-rule="evenodd" d="M130.432 33.2012C133.115 32.0701 136.104 30.9631 138.48 29.2465C140.59 27.7223 143.948 23.205 141.988 20.442C140.01 17.653 135.883 20.8495 134.549 22.7336C132.598 25.4881 131.688 29.2752 130.668 32.4567C130.588 32.7044 130.51 32.9548 130.432 33.2012Z" fill="#0A0A0C"/>
<path fill-rule="evenodd" clip-rule="evenodd" d="M123.552 33.5715C121.381 32.9261 118.691 33.1406 117.304 35.1531C116.563 36.2269 116.394 40.385 118.75 39.5759C119.16 39.4351 119.496 37.6123 119.997 37.1924C120.949 36.3918 122.738 36.4166 123.896 36.324C125.455 36.2008 127.074 36.3671 128.606 36.1552C128.607 36.1461 128.611 36.1376 128.615 36.1291C127.161 35.0038 125.313 34.1159 123.552 33.5715Z" fill="#0A0A0C"/>
<path fill-rule="evenodd" clip-rule="evenodd" d="M137.194 33.5715C139.365 32.9261 142.057 33.1406 143.445 35.1531C144.184 36.2262 144.352 40.3843 141.998 39.5759C141.586 39.4351 141.251 37.6123 140.751 37.1924C139.798 36.3918 138.01 36.4166 136.851 36.324C135.292 36.2002 133.673 36.3671 132.14 36.1552C132.139 36.1461 132.137 36.1376 132.131 36.1291C133.585 35.0045 135.434 34.1159 137.194 33.5715Z" fill="#0A0A0C"/>
<path fill-rule="evenodd" clip-rule="evenodd" d="M128.593 39.5603C128.911 42.2756 133.617 40.9554 131.366 37.2185C129.785 34.5918 128.878 37.0503 128.593 39.5603Z" fill="#0A0A0C"/>
<path fill-rule="evenodd" clip-rule="evenodd" d="M167.836 33.1399C166.745 30.4363 165.589 27.6838 164.839 24.8596C164.165 22.3144 163.627 16.1007 167.013 14.879C170.26 13.7074 171.44 19.3252 171.398 21.5314C171.333 24.8472 169.758 28.2328 168.572 31.2806C168.332 31.9012 168.085 32.5239 167.836 33.1399Z" fill="#0A0A0C"/>
<path fill-rule="evenodd" clip-rule="evenodd" d="M167.819 33.2012C165.134 32.0701 162.146 30.9631 159.769 29.2465C157.66 27.7223 154.302 23.2043 156.261 20.442C158.239 17.653 162.367 20.8495 163.7 22.7336C165.65 25.4881 166.562 29.2746 167.581 32.4567C167.662 32.7044 167.74 32.9548 167.819 33.2012Z" fill="#0A0A0C"/>
<path fill-rule="evenodd" clip-rule="evenodd" d="M167.827 33.2012C170.512 32.0708 173.5 30.9631 175.876 29.2465C177.985 27.7223 181.343 23.2043 179.385 20.442C177.407 17.653 173.279 20.8495 171.945 22.7336C169.995 25.4881 169.083 29.2752 168.064 32.4567C167.984 32.7038 167.905 32.9554 167.827 33.2012Z" fill="#0A0A0C"/>
<path fill-rule="evenodd" clip-rule="evenodd" d="M160.95 33.5715C158.777 32.9261 156.087 33.1406 154.699 35.1531C153.958 36.2269 153.79 40.3843 156.145 39.5759C156.556 39.4351 156.891 37.6123 157.391 37.1924C158.346 36.3918 160.134 36.4166 161.291 36.324C162.851 36.2008 164.469 36.3671 166.002 36.1552C166.004 36.1461 166.007 36.1376 166.011 36.1291C164.558 35.0038 162.709 34.1159 160.95 33.5715Z" fill="#0A0A0C"/>
<path fill-rule="evenodd" clip-rule="evenodd" d="M174.589 33.5715C176.763 32.9268 179.453 33.1399 180.84 35.1531C181.58 36.2262 181.75 40.3837 179.393 39.5759C178.984 39.4351 178.647 37.6129 178.147 37.1924C177.193 36.3918 175.406 36.4166 174.247 36.324C172.688 36.2008 171.069 36.3671 169.537 36.1552C169.534 36.1461 169.531 36.1376 169.529 36.1291C170.981 35.0038 172.83 34.1159 174.589 33.5715Z" fill="#0A0A0C"/>
<path fill-rule="evenodd" clip-rule="evenodd" d="M165.989 39.5603C166.307 42.2769 171.012 40.9541 168.762 37.2185C167.18 34.5918 166.276 37.0503 165.989 39.5603Z" fill="#0A0A0C"/>
<path fill-rule="evenodd" clip-rule="evenodd" d="M55.6484 33.1399C54.5562 30.4376 53.4014 27.6832 52.6525 24.8596C51.9774 22.3144 51.4404 16.1007 54.8247 14.879C58.0728 13.7068 59.2524 19.3252 59.21 21.5314C59.1461 24.8472 57.571 28.2328 56.3849 31.2806C56.1437 31.9012 55.8974 32.5232 55.6484 33.1399Z" fill="#0A0A0C"/>
<path fill-rule="evenodd" clip-rule="evenodd" d="M55.6309 33.2012C52.9458 32.0701 49.9584 30.9631 47.5816 29.2465C45.4727 27.7223 42.1145 23.205 44.0735 20.442C46.0514 17.653 50.1793 20.8495 51.5127 22.7336C53.4248 25.4346 54.3242 29.1298 55.3278 32.2461C55.4301 32.5636 55.5305 32.885 55.6309 33.2012Z" fill="#0A0A0C"/>
<path fill-rule="evenodd" clip-rule="evenodd" d="M55.6393 33.2012C58.3237 32.0708 61.3124 30.9631 63.6885 29.2465C65.7974 27.7223 69.1563 23.205 67.1966 20.442C65.2181 17.653 61.0915 20.8495 59.7574 22.7336C57.8453 25.4346 56.9466 29.1298 55.9423 32.2461C55.84 32.5636 55.7396 32.8844 55.6393 33.2012Z" fill="#0A0A0C"/>
<path fill-rule="evenodd" clip-rule="evenodd" d="M48.7613 33.5715C46.5891 32.9261 43.8989 33.1406 42.5114 35.1531C41.7717 36.2262 41.6029 40.385 43.9582 39.5759C44.3681 39.4351 44.7038 37.6123 45.2043 37.1924C46.1577 36.3918 47.9453 36.4166 49.1041 36.324C50.6636 36.2008 52.2824 36.3671 53.8146 36.1552C53.8159 36.1461 53.8192 36.1376 53.8237 36.1291C52.3711 35.0045 50.5209 34.1152 48.7613 33.5715Z" fill="#0A0A0C"/>
<path fill-rule="evenodd" clip-rule="evenodd" d="M62.4015 33.5715C64.5743 32.9268 67.2645 33.1399 68.6526 35.1531C69.3923 36.2262 69.5611 40.3843 67.2059 39.5759C66.7953 39.4351 66.4597 37.6123 65.9591 37.1924C65.0057 36.3918 63.2181 36.4166 62.0593 36.324C60.5005 36.2008 58.8816 36.3671 57.3495 36.1552C57.3475 36.1461 57.3442 36.1376 57.3403 36.1291C58.793 35.0038 60.6425 34.1166 62.4015 33.5715Z" fill="#0A0A0C"/>
<path fill-rule="evenodd" clip-rule="evenodd" d="M53.8009 39.5603C54.1189 42.2756 58.8249 40.9554 56.5746 37.2185C54.9935 34.5925 54.087 37.0503 53.8009 39.5603Z" fill="#0A0A0C"/>
<path fill-rule="evenodd" clip-rule="evenodd" d="M92.7103 289.713C91.6187 292.416 90.4632 295.169 89.7144 297.992C89.0399 300.536 88.5016 306.753 91.8872 307.974C95.1353 309.145 96.3142 303.527 96.2719 301.321C96.208 298.004 94.6322 294.619 93.4474 291.572C93.2056 290.951 92.9599 290.329 92.7103 289.713Z" fill="#0A0A0C"/>
<path fill-rule="evenodd" clip-rule="evenodd" d="M92.6927 289.651C90.0077 290.781 87.0203 291.889 84.6442 293.606C82.5346 295.13 79.1764 299.647 81.1354 302.41C83.114 305.199 87.2412 302.003 88.5746 300.119C90.4874 297.417 91.3854 293.722 92.3897 290.606C92.492 290.289 92.5924 289.967 92.6927 289.651Z" fill="#0A0A0C"/>
<path fill-rule="evenodd" clip-rule="evenodd" d="M92.7018 289.651C95.3868 290.781 98.3742 291.889 100.75 293.606C102.86 295.13 106.218 299.647 104.258 302.41C102.281 305.199 98.1533 302.003 96.8193 300.119C94.8694 297.364 93.957 293.577 92.9377 290.396C92.8582 290.148 92.78 289.898 92.7018 289.651Z" fill="#0A0A0C"/>
<path fill-rule="evenodd" clip-rule="evenodd" d="M85.823 289.281C83.6509 289.925 80.9607 289.711 79.5732 287.698C78.8335 286.626 78.6647 282.467 81.02 283.275C81.4299 283.416 81.7662 285.239 82.266 285.659C83.2201 286.459 85.0071 286.436 86.1665 286.527C87.7254 286.651 89.3455 286.486 90.8764 286.697C90.8777 286.707 90.8809 286.715 90.8855 286.723C89.4335 287.848 87.5826 288.736 85.823 289.281Z" fill="#0A0A0C"/>
<path fill-rule="evenodd" clip-rule="evenodd" d="M99.4639 289.281C101.636 289.925 104.327 289.711 105.714 287.698C106.454 286.626 106.623 282.468 104.268 283.275C103.858 283.416 103.521 285.239 103.021 285.659C102.067 286.459 100.28 286.436 99.1211 286.527C97.5622 286.651 95.9421 286.486 94.4112 286.697C94.4093 286.706 94.406 286.715 94.4021 286.723C95.8534 287.848 97.7049 288.736 99.4639 289.281Z" fill="#0A0A0C"/>
<path fill-rule="evenodd" clip-rule="evenodd" d="M90.8627 283.292C91.1801 280.576 95.8867 281.896 93.6363 285.633C92.0553 288.26 91.1507 285.804 90.8627 283.292Z" fill="#0A0A0C"/>
<path fill-rule="evenodd" clip-rule="evenodd" d="M130.106 289.713C129.014 292.416 127.859 295.169 127.111 297.992C126.435 300.536 125.898 306.752 129.282 307.974C132.53 309.145 133.711 303.527 133.668 301.321C133.604 298.007 132.03 294.617 130.844 291.572C130.601 290.951 130.356 290.329 130.106 289.713Z" fill="#0A0A0C"/>
<path fill-rule="evenodd" clip-rule="evenodd" d="M130.089 289.651C127.404 290.781 124.415 291.889 122.04 293.606C119.931 295.13 116.573 299.647 118.532 302.41C120.51 305.199 124.637 302.003 125.971 300.119C127.921 297.364 128.832 293.577 129.853 290.396C129.931 290.149 130.011 289.896 130.089 289.651Z" fill="#0A0A0C"/>
<path fill-rule="evenodd" clip-rule="evenodd" d="M130.098 289.651C132.783 290.781 135.77 291.889 138.147 293.606C140.257 295.13 143.614 299.647 141.654 302.41C139.675 305.199 135.549 302.003 134.215 300.119C132.266 297.364 131.353 293.577 130.333 290.396C130.254 290.149 130.176 289.896 130.098 289.651Z" fill="#0A0A0C"/>
<path fill-rule="evenodd" clip-rule="evenodd" d="M123.219 289.281C121.047 289.925 118.357 289.711 116.969 287.698C116.23 286.626 116.06 282.467 118.416 283.275C118.826 283.416 119.162 285.239 119.663 285.659C120.617 286.459 122.403 286.436 123.563 286.527C125.12 286.651 126.742 286.486 128.272 286.697C128.273 286.706 128.277 286.715 128.281 286.723C126.829 287.848 124.978 288.736 123.219 289.281Z" fill="#0A0A0C"/>
<path fill-rule="evenodd" clip-rule="evenodd" d="M136.86 289.281C139.032 289.925 141.722 289.711 143.111 287.698C143.849 286.626 144.018 282.468 141.664 283.275C141.253 283.416 140.918 285.239 140.417 285.659C139.463 286.459 137.676 286.436 136.516 286.527C134.958 286.651 133.338 286.486 131.807 286.697C131.805 286.707 131.803 286.715 131.798 286.723C133.25 287.848 135.1 288.736 136.86 289.281Z" fill="#0A0A0C"/>
<path fill-rule="evenodd" clip-rule="evenodd" d="M128.258 283.292C128.577 280.576 133.282 281.896 131.033 285.633C129.451 288.26 128.547 285.804 128.258 283.292Z" fill="#0A0A0C"/>
<path fill-rule="evenodd" clip-rule="evenodd" d="M167.502 289.713C166.41 292.416 165.255 295.169 164.506 297.992C163.832 300.536 163.293 306.753 166.68 307.974C169.928 309.145 171.106 303.527 171.064 301.321C171 298.007 169.427 294.617 168.238 291.572C167.997 290.951 167.751 290.329 167.502 289.713Z" fill="#0A0A0C"/>
<path fill-rule="evenodd" clip-rule="evenodd" d="M167.485 289.651C164.8 290.781 161.811 291.889 159.435 293.606C157.326 295.13 153.969 299.647 155.926 302.41C157.905 305.199 162.033 302.003 163.366 300.119C165.28 297.417 166.178 293.722 167.183 290.606C167.284 290.289 167.383 289.967 167.485 289.651Z" fill="#0A0A0C"/>
<path fill-rule="evenodd" clip-rule="evenodd" d="M167.493 289.651C170.178 290.781 173.167 291.889 175.543 293.606C177.652 295.13 181.009 299.647 179.05 302.41C177.073 305.199 172.945 302.003 171.612 300.119C169.698 297.417 168.802 293.722 167.795 290.606C167.694 290.289 167.593 289.967 167.493 289.651Z" fill="#0A0A0C"/>
<path fill-rule="evenodd" clip-rule="evenodd" d="M160.615 289.281C158.442 289.925 155.752 289.711 154.365 287.698C153.625 286.626 153.455 282.468 155.812 283.275C156.221 283.416 156.557 285.239 157.058 285.659C158.012 286.459 159.799 286.436 160.958 286.527C162.516 286.651 164.138 286.486 165.668 286.697C165.669 286.707 165.673 286.715 165.677 286.723C164.224 287.848 162.376 288.736 160.615 289.281Z" fill="#0A0A0C"/>
<path fill-rule="evenodd" clip-rule="evenodd" d="M174.255 289.281C176.428 289.925 179.119 289.711 180.506 287.698C181.246 286.626 181.415 282.468 179.059 283.275C178.65 283.416 178.314 285.239 177.813 285.659C176.859 286.459 175.074 286.436 173.914 286.527C172.355 286.651 170.734 286.486 169.203 286.697C169.2 286.707 169.198 286.715 169.194 286.723C170.645 287.848 172.497 288.736 174.255 289.281Z" fill="#0A0A0C"/>
<path fill-rule="evenodd" clip-rule="evenodd" d="M165.655 283.292C165.972 280.576 170.678 281.896 168.429 285.633C166.846 288.26 165.942 285.804 165.655 283.292Z" fill="#0A0A0C"/>
<path fill-rule="evenodd" clip-rule="evenodd" d="M55.3148 289.713C54.2219 292.414 53.067 295.169 52.3182 297.992C51.6437 300.536 51.1061 306.753 54.491 307.974C57.7385 309.145 58.9194 303.527 58.8764 301.321C58.8125 298.004 57.2367 294.619 56.0512 291.572C55.8101 290.951 55.5637 290.329 55.3148 289.713Z" fill="#0A0A0C"/>
<path fill-rule="evenodd" clip-rule="evenodd" d="M55.2971 289.651C52.6115 290.781 49.624 291.889 47.2479 293.606C45.1383 295.13 41.7808 299.647 43.7391 302.41C45.7177 305.199 49.845 302.002 51.179 300.119C53.0911 297.417 53.9892 293.722 54.9941 290.606C55.0964 290.29 55.1968 289.967 55.2971 289.651Z" fill="#0A0A0C"/>
<path fill-rule="evenodd" clip-rule="evenodd" d="M55.3057 289.651C57.9907 290.781 60.9781 291.89 63.3542 293.606C65.4638 295.129 68.822 299.647 66.863 302.41C64.8844 305.199 60.7578 302.003 59.4238 300.119C57.4739 297.364 56.5615 293.577 55.5416 290.396C55.4621 290.149 55.3839 289.896 55.3057 289.651Z" fill="#0A0A0C"/>
<path fill-rule="evenodd" clip-rule="evenodd" d="M48.4276 289.281C46.2548 289.925 43.5645 289.711 42.1771 287.698C41.4374 286.626 41.2686 282.467 43.6239 283.275C44.0338 283.416 44.3707 285.239 44.8706 285.659C45.8247 286.459 47.611 286.436 48.7704 286.527C50.3293 286.651 51.9494 286.486 53.4802 286.697C53.4822 286.707 53.4855 286.715 53.4894 286.723C52.0374 287.848 50.1872 288.736 48.4276 289.281Z" fill="#0A0A0C"/>
<path fill-rule="evenodd" clip-rule="evenodd" d="M62.0678 289.281C64.2406 289.925 66.9308 289.713 68.3189 287.698C69.058 286.626 69.2268 282.467 66.8715 283.275C66.4616 283.416 66.1253 285.239 65.6254 285.659C64.6713 286.459 62.885 286.436 61.7256 286.527C60.1668 286.651 58.5466 286.486 57.0151 286.697C57.0138 286.707 57.0105 286.715 57.006 286.723C58.458 287.848 60.3088 288.736 62.0678 289.281Z" fill="#0A0A0C"/>
<path fill-rule="evenodd" clip-rule="evenodd" d="M53.4666 283.292C53.7852 280.576 58.4899 281.896 56.2409 285.633C54.6592 288.261 53.7559 285.804 53.4666 283.292Z" fill="#0A0A0C"/>
<path fill-rule="evenodd" clip-rule="evenodd" d="M195.567 291.547C198.111 292.91 200.863 294.588 203.678 295.315C206.241 295.978 211.092 295.339 211.559 291.951C212.01 288.683 207.386 287.214 204.893 287.504C201.783 287.865 198.522 289.959 195.798 291.418C195.722 291.459 195.643 291.506 195.567 291.547Z" fill="#0A0A0C"/>
<path fill-rule="evenodd" clip-rule="evenodd" d="M195.519 291.567C196.614 295.036 200.01 308.284 206.126 305.153C209.106 303.629 206.709 298.583 205.148 296.867C202.947 294.45 199.296 293.18 196.345 291.918C196.071 291.799 195.793 291.683 195.519 291.567Z" fill="#0A0A0C"/>
<path fill-rule="evenodd" clip-rule="evenodd" d="M195.514 291.556C196.611 288.084 200.008 274.831 206.126 277.97C209.103 279.497 206.71 284.527 205.148 286.246C202.946 288.666 199.295 289.941 196.343 291.208C196.066 291.326 195.787 291.44 195.514 291.556Z" fill="#0A0A0C"/>
<path fill-rule="evenodd" clip-rule="evenodd" d="M195.193 299.493C195.688 301.725 195.791 305.074 193.822 306.704C192.54 307.765 189.226 307.416 189.988 305.035C190.13 304.594 191.671 304.132 192.054 303.593C192.847 302.474 192.732 300.385 192.806 299.097C192.909 297.297 192.745 295.442 192.954 293.662C192.961 293.66 192.969 293.657 192.976 293.652C194.004 295.402 194.742 297.511 195.193 299.493Z" fill="#0A0A0C"/>
<path fill-rule="evenodd" clip-rule="evenodd" d="M195.193 283.754C195.69 281.519 195.795 278.172 193.822 276.542C192.541 275.483 189.222 275.828 189.989 278.211C190.129 278.649 191.674 279.111 192.054 279.651C192.847 280.768 192.732 282.861 192.806 284.149C192.909 285.95 192.745 287.804 192.954 289.584C192.962 289.586 192.969 289.59 192.976 289.594C194.002 287.847 194.747 285.735 195.193 283.754Z" fill="#0A0A0C"/>
<path fill-rule="evenodd" clip-rule="evenodd" d="M190.003 293.678C187.563 293.088 188.606 287.81 192.032 290.478C194.093 292.082 192.539 293.245 190.003 293.678Z" fill="#0A0A0C"/>
<path fill-rule="evenodd" clip-rule="evenodd" d="M195.571 248.399C198.115 249.764 200.868 251.44 203.683 252.17C206.241 252.832 211.098 252.193 211.559 248.804C212.002 245.538 207.388 244.069 204.893 244.357C201.786 244.714 198.522 246.811 195.803 248.271C195.726 248.312 195.647 248.359 195.571 248.399Z" fill="#0A0A0C"/>
<path fill-rule="evenodd" clip-rule="evenodd" d="M195.514 248.42C196.614 251.891 200.008 265.138 206.126 262.006C209.104 260.481 206.71 255.44 205.148 253.725C202.943 251.307 199.293 250.035 196.343 248.769C196.066 248.651 195.787 248.535 195.514 248.42Z" fill="#0A0A0C"/>
<path fill-rule="evenodd" clip-rule="evenodd" d="M195.519 248.409C196.614 244.936 200.008 231.691 206.126 234.823C209.106 236.348 206.71 241.388 205.148 243.103C202.946 245.523 199.296 246.794 196.345 248.06C196.071 248.177 195.793 248.293 195.519 248.409Z" fill="#0A0A0C"/>
<path fill-rule="evenodd" clip-rule="evenodd" d="M195.193 256.34C195.69 258.58 195.795 261.916 193.822 263.551C192.543 264.611 189.221 264.278 189.989 261.888C190.129 261.451 191.674 260.988 192.054 260.449C192.847 259.331 192.732 257.239 192.806 255.95C192.909 254.149 192.745 252.295 192.954 250.515C192.962 250.513 192.969 250.509 192.976 250.505C194.002 252.249 194.746 254.36 195.193 256.34Z" fill="#0A0A0C"/>
<path fill-rule="evenodd" clip-rule="evenodd" d="M195.193 240.607C195.688 238.375 195.791 235.026 193.822 233.395C192.542 232.335 189.218 232.682 189.988 235.064C190.131 235.501 191.672 235.962 192.054 236.502C192.847 237.622 192.732 239.712 192.806 241.002C192.909 242.803 192.745 244.657 192.954 246.437C192.962 246.439 192.969 246.443 192.976 246.447C194.004 244.698 194.742 242.587 195.193 240.607Z" fill="#0A0A0C"/>
<path fill-rule="evenodd" clip-rule="evenodd" d="M190.003 250.531C187.563 249.943 188.608 244.657 192.032 247.325C194.095 248.934 192.539 250.097 190.003 250.531Z" fill="#0A0A0C"/>
<path fill-rule="evenodd" clip-rule="evenodd" d="M195.567 205.251C198.109 206.618 200.868 208.295 203.683 209.021C206.246 209.684 211.092 209.045 211.559 205.657C212.008 202.39 207.388 200.915 204.893 201.203C201.782 201.565 198.521 203.664 195.798 205.123C195.722 205.165 195.644 205.21 195.567 205.251Z" fill="#0A0A0C"/>
<path fill-rule="evenodd" clip-rule="evenodd" d="M195.514 205.271C196.614 208.745 200.008 221.991 206.126 218.858C209.104 217.334 206.71 212.293 205.148 210.578C202.943 208.158 199.293 206.887 196.343 205.621C196.066 205.504 195.787 205.388 195.514 205.271Z" fill="#0A0A0C"/>
<path fill-rule="evenodd" clip-rule="evenodd" d="M195.514 205.261C196.614 201.79 200.008 188.543 206.126 191.675C209.104 193.2 206.71 198.241 205.148 199.956C202.943 202.374 199.293 203.647 196.343 204.912C196.066 205.03 195.787 205.146 195.514 205.261Z" fill="#0A0A0C"/>
<path fill-rule="evenodd" clip-rule="evenodd" d="M195.193 213.198C195.688 215.431 195.791 218.779 193.822 220.41C192.541 221.471 189.222 221.123 189.989 218.741C190.129 218.303 191.674 217.841 192.054 217.301C192.847 216.182 192.732 214.091 192.806 212.803C192.909 211.011 192.719 209.118 192.967 207.363C194.015 209.066 194.746 211.234 195.193 213.198Z" fill="#0A0A0C"/>
<path fill-rule="evenodd" clip-rule="evenodd" d="M195.193 197.459C195.688 195.226 195.791 191.878 193.822 190.248C192.541 189.185 189.222 189.534 189.989 191.917C190.129 192.355 191.674 192.817 192.054 193.355C192.847 194.474 192.732 196.565 192.806 197.855C192.909 199.647 192.719 201.54 192.967 203.295C194.015 201.592 194.746 199.422 195.193 197.459Z" fill="#0A0A0C"/>
<path fill-rule="evenodd" clip-rule="evenodd" d="M190.003 207.384C187.562 206.796 188.608 201.52 192.032 204.178C194.098 205.783 192.534 206.944 190.003 207.384Z" fill="#0A0A0C"/>
<path fill-rule="evenodd" clip-rule="evenodd" d="M195.567 118.957C198.11 120.321 200.865 122.001 203.678 122.727C206.241 123.389 211.092 122.75 211.559 119.362C212.01 116.093 207.386 114.624 204.893 114.914C201.782 115.276 198.522 117.37 195.798 118.828C195.722 118.87 195.643 118.916 195.567 118.957Z" fill="#0A0A0C"/>
<path fill-rule="evenodd" clip-rule="evenodd" d="M195.519 118.978C196.614 122.448 200.01 135.694 206.126 132.563C209.106 131.039 206.709 125.993 205.148 124.278C202.948 121.861 199.296 120.59 196.345 119.327C196.071 119.209 195.793 119.092 195.519 118.978Z" fill="#0A0A0C"/>
<path fill-rule="evenodd" clip-rule="evenodd" d="M195.514 118.967C196.611 115.494 200.009 102.241 206.126 105.381C209.103 106.907 206.71 111.939 205.148 113.656C202.946 116.076 199.293 117.35 196.343 118.618C196.066 118.736 195.787 118.851 195.514 118.967Z" fill="#0A0A0C"/>
<path fill-rule="evenodd" clip-rule="evenodd" d="M195.193 126.903C195.688 129.135 195.791 132.485 193.822 134.115C192.464 135.241 189.268 134.769 190.02 132.384C190.133 132.027 191.783 131.382 192.139 130.827C192.883 129.664 192.753 127.568 192.821 126.256C192.907 124.553 192.713 122.72 192.976 121.062C194.004 122.812 194.742 124.922 195.193 126.903Z" fill="#0A0A0C"/>
<path fill-rule="evenodd" clip-rule="evenodd" d="M195.193 111.165C195.69 108.93 195.795 105.584 193.822 103.953C192.542 102.893 189.221 103.238 189.988 105.622C190.129 106.06 191.674 106.521 192.054 107.061C192.847 108.179 192.732 110.271 192.806 111.56C192.909 113.36 192.745 115.215 192.954 116.994C192.962 116.997 192.969 117 192.976 117.005C194.003 115.258 194.747 113.145 195.193 111.165Z" fill="#0A0A0C"/>
<path fill-rule="evenodd" clip-rule="evenodd" d="M190.003 121.089C187.563 120.499 188.606 115.222 192.032 117.888C194.093 119.493 192.539 120.654 190.003 121.089Z" fill="#0A0A0C"/>
<path fill-rule="evenodd" clip-rule="evenodd" d="M195.571 75.8097C198.115 77.1755 200.868 78.8491 203.683 79.5799C206.242 80.2436 211.098 79.6034 211.559 76.2152C212.002 72.9477 207.388 71.4795 204.893 71.767C201.786 72.1249 198.522 74.2229 195.803 75.6806C195.726 75.7223 195.647 75.7686 195.571 75.8097Z" fill="#0A0A0C"/>
<path fill-rule="evenodd" clip-rule="evenodd" d="M195.514 75.8299C196.614 79.3022 200.008 92.549 206.126 89.4164C209.104 87.8922 206.71 82.8507 205.148 81.1361C202.943 78.7167 199.293 77.4461 196.343 76.1794C196.066 76.0614 195.787 75.9453 195.514 75.8299Z" fill="#0A0A0C"/>
<path fill-rule="evenodd" clip-rule="evenodd" d="M195.519 75.8195C196.614 72.3466 200.008 59.101 206.126 62.2336C209.106 63.7579 206.709 68.7987 205.148 70.5133C202.946 72.9327 199.297 74.2046 196.345 75.4707C196.071 75.588 195.793 75.7041 195.519 75.8195Z" fill="#0A0A0C"/>
<path fill-rule="evenodd" clip-rule="evenodd" d="M195.193 83.7504C195.69 85.9904 195.795 89.3278 193.822 90.9622C192.543 92.0222 189.219 91.6884 189.988 89.2984C190.129 88.8603 191.674 88.3987 192.054 87.8596C192.847 86.7415 192.732 84.6487 192.806 83.3605C192.909 81.5598 192.745 79.7057 192.954 77.9259C192.962 77.9233 192.969 77.92 192.976 77.9155C194.002 79.6607 194.746 81.7717 195.193 83.7504Z" fill="#0A0A0C"/>
<path fill-rule="evenodd" clip-rule="evenodd" d="M195.193 68.017C195.69 65.7841 195.791 62.4364 193.822 60.8059C192.542 59.7458 189.226 60.0874 189.989 62.4696C190.131 62.9116 191.671 63.3713 192.054 63.913C192.847 65.0331 192.732 67.1232 192.806 68.4127C192.909 70.2134 192.745 72.0675 192.954 73.8474C192.962 73.85 192.969 73.8532 192.976 73.8578C194.004 72.1093 194.742 69.9983 195.193 68.017Z" fill="#0A0A0C"/>
<path fill-rule="evenodd" clip-rule="evenodd" d="M190.003 77.9409C187.563 77.3548 188.607 72.0675 192.032 74.7359C194.096 76.3436 192.539 77.5074 190.003 77.9409Z" fill="#0A0A0C"/>
<path fill-rule="evenodd" clip-rule="evenodd" d="M195.567 32.6621C198.107 34.0298 200.868 35.706 203.683 36.4323C206.246 37.094 211.092 36.4544 211.559 33.0682C212.008 29.8 207.388 28.3253 204.893 28.6141C201.782 28.9747 198.521 31.0746 195.798 32.5336C195.722 32.5754 195.644 32.621 195.567 32.6621Z" fill="#0A0A0C"/>
<path fill-rule="evenodd" clip-rule="evenodd" d="M195.514 32.6823C196.614 36.1545 200.008 49.402 206.126 46.2688C209.104 44.7446 206.71 39.7031 205.148 37.9885C202.943 35.5691 199.293 34.2985 196.343 33.0317C196.066 32.9144 195.787 32.7983 195.514 32.6823Z" fill="#0A0A0C"/>
<path fill-rule="evenodd" clip-rule="evenodd" d="M195.514 32.6725C196.614 29.2002 200.008 15.9534 206.126 19.086C209.104 20.6102 206.71 25.6517 205.148 27.3663C202.943 29.7857 199.293 31.0563 196.343 32.323C196.066 32.441 195.787 32.5571 195.514 32.6725Z" fill="#0A0A0C"/>
<path fill-rule="evenodd" clip-rule="evenodd" d="M195.193 40.6086C195.688 42.8409 195.791 46.1893 193.822 47.8204C192.541 48.8818 189.222 48.5337 189.989 46.1508C190.129 45.7133 191.674 45.2511 192.054 44.7126C192.847 43.5939 192.732 41.5018 192.806 40.2129C192.909 38.4213 192.719 36.5274 192.967 34.7737C194.015 36.4753 194.746 38.6456 195.193 40.6086Z" fill="#0A0A0C"/>
<path fill-rule="evenodd" clip-rule="evenodd" d="M195.193 24.87C195.688 22.6371 195.791 19.2894 193.822 17.6582C192.541 16.5969 189.222 16.9443 189.989 19.3278C190.129 19.7653 191.674 20.2269 192.054 20.766C192.847 21.8848 192.732 23.9762 192.806 25.2658C192.909 27.0573 192.719 28.9505 192.967 30.7049C194.015 29.002 194.746 26.833 195.193 24.87Z" fill="#0A0A0C"/>
<path fill-rule="evenodd" clip-rule="evenodd" d="M190.003 34.7939C187.562 34.2065 188.608 28.931 192.032 31.5883C194.098 33.1921 192.534 34.3552 190.003 34.7939Z" fill="#0A0A0C"/>
<path fill-rule="evenodd" clip-rule="evenodd" d="M195.567 162.104C198.107 163.471 200.868 165.148 203.683 165.875C206.246 166.536 211.092 165.897 211.559 162.509C212.008 159.24 207.388 157.772 204.893 158.062C201.782 158.423 198.522 160.517 195.798 161.976C195.722 162.016 195.644 162.063 195.567 162.104Z" fill="#0A0A0C"/>
<path fill-rule="evenodd" clip-rule="evenodd" d="M195.514 162.125C196.614 165.597 200.008 178.844 206.126 175.711C209.104 174.187 206.71 169.146 205.148 167.43C202.943 165.011 199.293 163.74 196.343 162.474C196.066 162.355 195.787 162.241 195.514 162.125Z" fill="#0A0A0C"/>
<path fill-rule="evenodd" clip-rule="evenodd" d="M195.514 162.114C196.614 158.642 200.008 145.395 206.126 148.528C209.104 150.052 206.71 155.093 205.148 156.808C202.943 159.227 199.293 160.499 196.343 161.766C196.066 161.883 195.787 161.998 195.514 162.114Z" fill="#0A0A0C"/>
<path fill-rule="evenodd" clip-rule="evenodd" d="M195.193 170.051C195.688 172.283 195.791 175.631 193.822 177.261C192.539 178.325 189.226 177.976 189.988 175.592C190.129 175.154 191.672 174.687 192.054 174.15C192.847 173.03 192.732 170.939 192.806 169.649C192.909 167.851 192.745 165.998 192.954 164.22C192.962 164.217 192.969 164.215 192.976 164.209C194.004 165.959 194.742 168.069 195.193 170.051Z" fill="#0A0A0C"/>
<path fill-rule="evenodd" clip-rule="evenodd" d="M195.193 154.312C195.688 152.077 195.793 148.732 193.822 147.1C192.541 146.038 189.222 146.386 189.989 148.769C190.129 149.207 191.674 149.67 192.054 150.208C192.847 151.327 192.732 153.418 192.806 154.707C192.909 156.499 192.719 158.392 192.967 160.147C194.012 158.443 194.746 156.275 195.193 154.312Z" fill="#0A0A0C"/>
<path fill-rule="evenodd" clip-rule="evenodd" d="M190.003 164.23C187.568 163.658 188.604 158.362 192.032 161.036C194.088 162.64 192.534 163.805 190.003 164.23Z" fill="#0A0A0C"/>
<path fill-rule="evenodd" clip-rule="evenodd" d="M27.7841 291.547C25.2405 292.91 22.4877 294.588 19.673 295.315C17.1105 295.978 12.2598 295.339 11.7932 291.951C11.3422 288.683 15.9641 287.214 18.4575 287.504C21.5688 287.865 24.8299 289.959 27.5527 291.418C27.6296 291.459 27.7091 291.506 27.7841 291.547Z" fill="#0A0A0C"/>
<path fill-rule="evenodd" clip-rule="evenodd" d="M27.833 291.567C26.7381 295.036 23.3408 308.283 17.2245 305.153C14.2456 303.629 16.6425 298.583 18.2034 296.867C20.4048 294.45 24.055 293.18 27.0053 291.918C27.2803 291.799 27.5579 291.683 27.833 291.567Z" fill="#0A0A0C"/>
<path fill-rule="evenodd" clip-rule="evenodd" d="M27.8376 291.556C26.7407 288.083 23.3427 274.833 17.2245 277.97C14.2482 279.497 16.6406 284.527 18.2034 286.246C20.4068 288.664 24.0557 289.941 27.0092 291.208C27.2836 291.326 27.5632 291.44 27.8376 291.556Z" fill="#0A0A0C"/>
<path fill-rule="evenodd" clip-rule="evenodd" d="M28.1582 299.493C27.6622 301.725 27.5599 305.074 29.5294 306.704C30.8113 307.765 34.1259 307.416 33.3621 305.035C33.2206 304.594 31.68 304.134 31.2968 303.593C30.5043 302.474 30.6184 300.385 30.5441 299.097C30.4411 297.297 30.606 295.442 30.3974 293.662C30.3896 293.66 30.3818 293.657 30.3746 293.652C29.3482 295.402 28.6098 297.511 28.1582 299.493Z" fill="#0A0A0C"/>
<path fill-rule="evenodd" clip-rule="evenodd" d="M28.1581 283.754C27.6602 281.519 27.5566 278.172 29.5293 276.542C30.8112 275.483 34.1291 275.828 33.362 278.211C33.2212 278.649 31.6787 279.111 31.2968 279.651C30.5043 280.768 30.6183 282.861 30.544 284.149C30.4411 285.948 30.606 287.805 30.3974 289.584C30.3896 289.586 30.3818 289.59 30.3746 289.594C29.3488 287.847 28.6039 285.735 28.1581 283.754Z" fill="#0A0A0C"/>
<path fill-rule="evenodd" clip-rule="evenodd" d="M33.3491 293.678C35.7897 293.087 34.7444 287.812 31.319 290.478C29.2577 292.082 30.812 293.245 33.3491 293.678Z" fill="#0A0A0C"/>
<path fill-rule="evenodd" clip-rule="evenodd" d="M27.7796 248.399C25.234 249.764 22.4845 251.44 19.6685 252.17C17.1092 252.832 12.2534 252.193 11.7933 248.804C11.3495 245.538 15.9635 244.069 18.4576 244.357C21.5662 244.714 24.8293 246.812 27.5483 248.271C27.6258 248.312 27.704 248.359 27.7796 248.399Z" fill="#0A0A0C"/>
<path fill-rule="evenodd" clip-rule="evenodd" d="M27.8376 248.42C26.7375 251.892 23.3441 265.138 17.2246 262.006C14.2476 260.482 16.6406 255.44 18.2034 253.725C20.4082 251.307 24.0564 250.035 27.0093 248.769C27.2837 248.651 27.5632 248.535 27.8376 248.42Z" fill="#0A0A0C"/>
<path fill-rule="evenodd" clip-rule="evenodd" d="M27.833 248.409C26.7369 244.936 23.3434 231.691 17.2246 234.823C14.2469 236.347 16.6419 241.387 18.2034 243.103C20.4055 245.521 24.0538 246.795 27.0054 248.06C27.2797 248.177 27.5587 248.293 27.833 248.409Z" fill="#0A0A0C"/>
<path fill-rule="evenodd" clip-rule="evenodd" d="M28.1582 256.34C27.661 258.58 27.5567 261.918 29.5294 263.551C30.8087 264.611 34.1311 264.278 33.3621 261.888C33.2213 261.45 31.6787 260.988 31.2968 260.449C30.5044 259.331 30.6184 257.239 30.5441 255.95C30.4411 254.149 30.606 252.295 30.3975 250.515C30.3897 250.513 30.3818 250.509 30.3747 250.505C29.3502 252.251 28.6053 254.36 28.1582 256.34Z" fill="#0A0A0C"/>
<path fill-rule="evenodd" clip-rule="evenodd" d="M28.1582 240.607C27.6622 238.373 27.5599 235.026 29.5294 233.395C30.81 232.335 34.133 232.682 33.3621 235.064C33.2206 235.501 31.6787 235.962 31.2968 236.502C30.5037 237.622 30.6184 239.712 30.5441 241.002C30.4411 242.803 30.606 244.657 30.3974 246.437C30.3896 246.439 30.3818 246.443 30.3746 246.447C29.3482 244.697 28.6098 242.589 28.1582 240.607Z" fill="#0A0A0C"/>
<path fill-rule="evenodd" clip-rule="evenodd" d="M33.349 250.531C35.7903 249.943 34.7423 244.657 31.3189 247.325C29.255 248.934 30.8126 250.097 33.349 250.531Z" fill="#0A0A0C"/>
<path fill-rule="evenodd" clip-rule="evenodd" d="M27.7841 205.251C25.2431 206.618 22.4824 208.295 19.6684 209.021C17.1059 209.684 12.2591 209.045 11.7932 205.657C11.3435 202.39 15.9621 200.915 18.4575 201.203C21.5694 201.565 24.8305 203.664 27.5527 205.123C27.6296 205.165 27.7085 205.212 27.7841 205.251Z" fill="#0A0A0C"/>
<path fill-rule="evenodd" clip-rule="evenodd" d="M27.8376 205.271C26.7375 208.745 23.3447 221.99 17.2246 218.858C14.2476 217.335 16.6406 212.293 18.2034 210.578C20.4075 208.16 24.0571 206.888 27.0093 205.621C27.2837 205.504 27.5632 205.388 27.8376 205.271Z" fill="#0A0A0C"/>
<path fill-rule="evenodd" clip-rule="evenodd" d="M27.8375 205.261C26.7374 201.789 23.344 188.544 17.2245 191.675C14.2468 193.199 16.6412 198.241 18.2033 199.956C20.4081 202.374 24.057 203.646 27.0092 204.912C27.2835 205.03 27.5631 205.146 27.8375 205.261Z" fill="#0A0A0C"/>
<path fill-rule="evenodd" clip-rule="evenodd" d="M28.1582 213.198C27.6622 215.431 27.5599 218.779 29.5294 220.41C30.8113 221.471 34.1291 221.123 33.3621 218.741C33.2213 218.303 31.6787 217.841 31.2968 217.301C30.5037 216.182 30.6184 214.091 30.5441 212.803C30.4418 211.011 30.6334 209.117 30.3838 207.363C29.3365 209.067 28.6059 211.234 28.1582 213.198Z" fill="#0A0A0C"/>
<path fill-rule="evenodd" clip-rule="evenodd" d="M28.1582 197.459C27.6622 195.226 27.5599 191.878 29.5294 190.248C30.8113 189.187 34.1285 189.534 33.3621 191.917C33.2213 192.355 31.678 192.817 31.2968 193.355C30.5037 194.474 30.6184 196.565 30.5441 197.855C30.4418 199.647 30.6334 201.541 30.3838 203.295C29.3358 201.591 28.6059 199.422 28.1582 197.459Z" fill="#0A0A0C"/>
<path fill-rule="evenodd" clip-rule="evenodd" d="M33.349 207.384C35.7909 206.794 34.7417 201.521 31.3189 204.178C29.2517 205.783 30.8178 206.944 33.349 207.384Z" fill="#0A0A0C"/>
<path fill-rule="evenodd" clip-rule="evenodd" d="M27.7841 118.957C25.2425 120.321 22.4864 122 19.673 122.727C17.1105 123.389 12.2598 122.75 11.7932 119.362C11.3429 116.093 15.9641 114.624 18.4576 114.914C21.5695 115.276 24.8293 117.37 27.5528 118.828C27.6297 118.869 27.7085 118.916 27.7841 118.957Z" fill="#0A0A0C"/>
<path fill-rule="evenodd" clip-rule="evenodd" d="M27.833 118.978C26.7374 122.448 23.3408 135.693 17.2245 132.563C14.2456 131.039 16.6425 125.993 18.2034 124.278C20.4042 121.861 24.055 120.589 27.0053 119.327C27.2797 119.209 27.5586 119.092 27.833 118.978Z" fill="#0A0A0C"/>
<path fill-rule="evenodd" clip-rule="evenodd" d="M27.8376 118.967C26.7408 115.494 23.3421 102.243 17.2246 105.381C14.2482 106.907 16.64 111.938 18.2034 113.656C20.4068 116.076 24.0564 117.35 27.0093 118.618C27.2836 118.736 27.5639 118.851 27.8376 118.967Z" fill="#0A0A0C"/>
<path fill-rule="evenodd" clip-rule="evenodd" d="M28.1582 126.903C27.6622 129.136 27.5599 132.484 29.5294 134.115C30.8888 135.24 34.0841 134.769 33.3314 132.384C33.2187 132.027 31.5673 131.382 31.2121 130.827C30.4672 129.664 30.5975 127.568 30.531 126.256C30.4444 124.553 30.6392 122.718 30.3746 121.062C29.3475 122.812 28.6098 124.922 28.1582 126.903Z" fill="#0A0A0C"/>
<path fill-rule="evenodd" clip-rule="evenodd" d="M28.1582 111.165C27.661 108.93 27.5567 105.583 29.5294 103.953C30.8107 102.894 34.1298 103.238 33.3621 105.622C33.2213 106.06 31.6787 106.521 31.2968 107.061C30.5044 108.179 30.6184 110.271 30.5441 111.56C30.4411 113.36 30.606 115.215 30.3975 116.994C30.3897 116.997 30.3818 117 30.3747 117.005C29.3489 115.257 28.604 113.145 28.1582 111.165Z" fill="#0A0A0C"/>
<path fill-rule="evenodd" clip-rule="evenodd" d="M33.349 121.089C35.7896 120.498 34.7443 115.222 31.3189 117.888C29.2569 119.493 30.8125 120.654 33.349 121.089Z" fill="#0A0A0C"/>
<path fill-rule="evenodd" clip-rule="evenodd" d="M27.7796 75.8097C25.2354 77.1749 22.4839 78.8491 19.6685 79.5799C17.1092 80.2436 12.2534 79.6034 11.7933 76.2152C11.3495 72.9477 15.9635 71.4795 18.4576 71.767C21.5662 72.1249 24.8287 74.2235 27.5483 75.6806C27.6258 75.7223 27.704 75.7686 27.7796 75.8097Z" fill="#0A0A0C"/>
<path fill-rule="evenodd" clip-rule="evenodd" d="M27.8376 75.8299C26.7375 79.3028 23.3441 92.5477 17.2245 89.4164C14.2476 87.8928 16.6413 82.8507 18.2034 81.1361C20.4081 78.7174 24.0564 77.4461 27.0093 76.1794C27.2836 76.0614 27.5639 75.9453 27.8376 75.8299Z" fill="#0A0A0C"/>
<path fill-rule="evenodd" clip-rule="evenodd" d="M27.8329 75.8195C26.7374 72.3466 23.3433 59.1017 17.2245 62.2336C14.2462 63.7572 16.6419 68.7987 18.2033 70.5133C20.4061 72.932 24.0537 74.2046 27.0053 75.4707C27.2797 75.588 27.5586 75.7041 27.8329 75.8195Z" fill="#0A0A0C"/>
<path fill-rule="evenodd" clip-rule="evenodd" d="M28.1582 83.7504C27.661 85.9904 27.5567 89.3284 29.5294 90.9622C30.8087 92.0216 34.1311 91.6884 33.3621 89.2984C33.2213 88.8603 31.6787 88.3987 31.2968 87.8596C30.5044 86.7415 30.6184 84.6487 30.5441 83.3605C30.4411 81.5598 30.606 79.7051 30.3975 77.9259C30.3897 77.9233 30.3818 77.92 30.3747 77.9155C29.3502 79.6614 28.6053 81.7711 28.1582 83.7504Z" fill="#0A0A0C"/>
<path fill-rule="evenodd" clip-rule="evenodd" d="M28.1582 68.017C27.6622 65.7835 27.5599 62.4364 29.5294 60.8059C30.8093 59.7458 34.1246 60.0874 33.3621 62.4696C33.2206 62.9116 31.6807 63.3713 31.2968 63.913C30.5037 65.0331 30.6184 67.1232 30.5441 68.4127C30.4411 70.2128 30.606 72.0675 30.3974 73.8474C30.389 73.85 30.3818 73.8532 30.3746 73.8578C29.3482 72.108 28.6098 69.9983 28.1582 68.017Z" fill="#0A0A0C"/>
<path fill-rule="evenodd" clip-rule="evenodd" d="M33.3491 77.9409C35.7897 77.3535 34.7431 72.0675 31.319 74.7359C29.2557 76.3436 30.8126 77.5074 33.3491 77.9409Z" fill="#0A0A0C"/>
<path fill-rule="evenodd" clip-rule="evenodd" d="M27.7841 32.6621C25.2431 34.0298 22.4824 35.706 19.6684 36.4323C17.1059 37.094 12.2591 36.4544 11.7932 33.0682C11.3435 29.8 15.9621 28.3253 18.4575 28.6141C21.5694 28.9747 24.8305 31.0746 27.5527 32.5336C27.6296 32.5754 27.7085 32.621 27.7841 32.6621Z" fill="#0A0A0C"/>
<path fill-rule="evenodd" clip-rule="evenodd" d="M27.8376 32.6823C26.7375 36.1558 23.3441 49.4007 17.2245 46.2688C14.2476 44.7452 16.6413 39.7031 18.2034 37.9885C20.4081 35.5697 24.057 34.2991 27.0093 33.0317C27.2836 32.9144 27.5639 32.7983 27.8376 32.6823Z" fill="#0A0A0C"/>
<path fill-rule="evenodd" clip-rule="evenodd" d="M27.8375 32.6725C26.7381 29.1996 23.344 15.9547 17.2245 19.086C14.2468 20.6096 16.6412 25.6517 18.2033 27.3663C20.4081 29.785 24.057 31.0563 27.0092 32.323C27.2835 32.441 27.5638 32.5571 27.8375 32.6725Z" fill="#0A0A0C"/>
<path fill-rule="evenodd" clip-rule="evenodd" d="M28.1582 40.6086C27.6622 42.8415 27.5599 46.1893 29.5294 47.8204C30.8113 48.8818 34.1291 48.5337 33.3621 46.1508C33.2213 45.7127 31.6787 45.2511 31.2968 44.7126C30.5037 43.5939 30.6184 41.5018 30.5441 40.2129C30.4418 38.422 30.6334 36.5268 30.3838 34.7737C29.3358 36.4766 28.6053 38.645 28.1582 40.6086Z" fill="#0A0A0C"/>
<path fill-rule="evenodd" clip-rule="evenodd" d="M28.1582 24.87C27.6622 22.6365 27.5599 19.2894 29.5294 17.6582C30.8113 16.5969 34.1291 16.9443 33.3621 19.3278C33.2213 19.7653 31.6787 20.2269 31.2968 20.766C30.5037 21.8848 30.6184 23.9762 30.5441 25.2658C30.4418 27.0566 30.6334 28.9512 30.3838 30.7049C29.3365 29.0001 28.6059 26.8337 28.1582 24.87Z" fill="#0A0A0C"/>
<path fill-rule="evenodd" clip-rule="evenodd" d="M33.349 34.7939C35.7903 34.2052 34.7423 28.9316 31.3189 31.5883C29.2517 33.1927 30.8178 34.3558 33.349 34.7939Z" fill="#0A0A0C"/>
<path fill-rule="evenodd" clip-rule="evenodd" d="M27.7841 162.104C25.2431 163.471 22.4819 165.148 19.6684 165.875C17.1053 166.536 12.2592 165.897 11.7932 162.509C11.3429 159.24 15.9635 157.772 18.4576 158.062C21.5695 158.423 24.8293 160.517 27.5528 161.976C27.6297 162.016 27.7085 162.063 27.7841 162.104Z" fill="#0A0A0C"/>
<path fill-rule="evenodd" clip-rule="evenodd" d="M27.8376 162.125C26.7375 165.597 23.3441 178.842 17.2245 175.711C14.2476 174.187 16.6413 169.146 18.2034 167.43C20.4081 165.013 24.057 163.74 27.0093 162.474C27.2836 162.355 27.5632 162.241 27.8376 162.125Z" fill="#0A0A0C"/>
<path fill-rule="evenodd" clip-rule="evenodd" d="M27.8376 162.114C26.7375 158.641 23.3441 145.396 17.2245 148.528C14.2476 150.052 16.6413 155.093 18.2034 156.808C20.4081 159.227 24.0564 160.499 27.0093 161.766C27.2836 161.883 27.5632 161.998 27.8376 162.114Z" fill="#0A0A0C"/>
<path fill-rule="evenodd" clip-rule="evenodd" d="M28.1582 170.051C27.6622 172.284 27.5599 175.631 29.5294 177.261C30.8126 178.325 34.1252 177.976 33.3621 175.592C33.2213 175.153 31.6787 174.689 31.2968 174.15C30.5037 173.032 30.6184 170.939 30.5441 169.649C30.4411 167.851 30.606 165.998 30.3974 164.22C30.3896 164.217 30.3818 164.215 30.3746 164.209C29.3482 165.959 28.6098 168.069 28.1582 170.051Z" fill="#0A0A0C"/>
<path fill-rule="evenodd" clip-rule="evenodd" d="M28.1583 154.312C27.6643 152.077 27.5587 148.732 29.5294 147.1C30.8113 146.038 34.1292 146.387 33.3621 148.769C33.2214 149.207 31.6781 149.669 31.2969 150.208C30.5037 151.327 30.6184 153.418 30.5441 154.707C30.4418 156.498 30.6334 158.393 30.3838 160.147C29.3385 158.442 28.606 156.276 28.1583 154.312Z" fill="#0A0A0C"/>
<path fill-rule="evenodd" clip-rule="evenodd" d="M33.349 164.23C35.7838 163.657 34.7456 158.362 31.319 161.036C29.2635 162.64 30.8172 163.805 33.349 164.23Z" fill="#0A0A0C"/>
<path d="M97.6339 195.713H97.6698" stroke="black" stroke-width="0.0334464" stroke-miterlimit="10"/>
<path fill-rule="evenodd" clip-rule="evenodd" d="M100.991 149.869C103.191 149.869 122.36 149.687 122.36 150.048C122.36 154.405 122.36 158.763 122.36 163.121C122.36 165.637 122.36 168.155 122.36 170.672C122.36 171.249 122.775 174.079 122.36 174.525C121 175.986 100.991 173.664 100.991 174.346C100.991 166.186 100.991 158.028 100.991 149.869Z" fill="#0A0A0C" stroke="#0A0A0C" stroke-width="0.0334464" stroke-miterlimit="10"/>
<path fill-rule="evenodd" clip-rule="evenodd" d="M102.326 154.492C103.217 153.464 104.107 152.437 104.998 151.41C105.443 152.95 105.888 154.492 106.333 156.033C104.998 155.519 103.662 155.005 102.326 154.492Z" fill="white"/>
<path fill-rule="evenodd" clip-rule="evenodd" d="M118.354 151.41C119.243 152.437 120.135 153.464 121.024 154.492C119.689 155.005 118.354 155.519 117.017 156.033C117.463 154.492 117.909 152.95 118.354 151.41Z" fill="white"/>
<path fill-rule="evenodd" clip-rule="evenodd" d="M118.438 172.896C119.328 171.868 120.218 170.841 121.11 169.814C119.772 169.3 118.438 168.786 117.103 168.272C117.547 169.814 117.992 171.355 118.438 172.896Z" fill="white"/>
<path fill-rule="evenodd" clip-rule="evenodd" d="M104.998 172.983C104.107 171.956 103.217 170.93 102.326 169.902C103.662 169.388 104.998 168.875 106.333 168.361C105.888 169.902 105.443 171.442 104.998 172.983Z" fill="white"/>
<path fill-rule="evenodd" clip-rule="evenodd" d="M111.676 149.869C110.795 152.916 109.915 155.964 109.034 159.011C108.706 160.145 102.268 161.706 100.991 162.196C102.268 162.688 108.706 164.247 109.034 165.383C109.915 168.429 110.795 171.477 111.676 174.525C112.557 171.477 113.436 168.429 114.316 165.383C114.645 164.247 121.084 162.688 122.36 162.196C121.084 161.706 114.645 160.145 114.316 159.011C113.436 155.964 112.557 152.916 111.676 149.869Z" fill="white"/>
<path fill-rule="evenodd" clip-rule="evenodd" d="M177.119 154.492C176.683 156.498 176.249 158.505 175.814 160.512C175.663 161.211 171.26 161.96 170.441 162.196C171.26 162.434 175.663 163.182 175.814 163.881C176.249 165.888 176.683 167.894 177.119 169.902C177.553 167.894 177.988 165.888 178.423 163.881C178.574 163.182 182.977 162.434 183.796 162.196C182.977 161.96 178.574 161.211 178.423 160.512C177.988 158.505 177.553 156.498 177.119 154.492Z" fill="white" stroke="white" stroke-width="0.0334464" stroke-miterlimit="10"/>
<path fill-rule="evenodd" clip-rule="evenodd" d="M177.104 132.908C176.67 134.914 176.235 136.921 175.801 138.928C175.65 139.627 171.247 140.376 170.427 140.612C171.247 140.849 175.65 141.597 175.801 142.297C176.235 144.304 176.67 146.311 177.104 148.318C177.54 146.311 177.975 144.304 178.41 142.297C178.561 141.597 182.964 140.849 183.783 140.612C182.964 140.376 178.561 139.627 178.41 138.928C177.975 136.921 177.54 134.914 177.104 132.908Z" fill="white" stroke="white" stroke-width="0.0334464" stroke-miterlimit="10"/>
<path fill-rule="evenodd" clip-rule="evenodd" d="M177.141 176.05C176.705 178.057 176.271 180.063 175.837 182.07C175.685 182.769 171.283 183.519 170.463 183.755C171.282 183.991 175.685 184.74 175.837 185.439C176.271 187.446 176.705 189.453 177.141 191.461C177.576 189.453 178.011 187.446 178.445 185.439C178.598 184.74 183.001 183.991 183.819 183.755C183.001 183.519 178.598 182.769 178.445 182.07C178.011 180.063 177.576 178.057 177.141 176.05Z" fill="white" stroke="white" stroke-width="0.0334464" stroke-miterlimit="10"/>
<path fill-rule="evenodd" clip-rule="evenodd" d="M158.42 154.492C157.986 156.498 157.55 158.505 157.115 160.512C156.964 161.211 152.561 161.96 151.742 162.196C152.561 162.434 156.964 163.182 157.115 163.881C157.55 165.888 157.986 167.894 158.42 169.902C158.855 167.894 159.289 165.888 159.725 163.881C159.876 163.182 164.279 162.434 165.097 162.196C164.279 161.96 159.876 161.211 159.725 160.512C159.289 158.505 158.855 156.498 158.42 154.492Z" fill="white" stroke="white" stroke-width="0.0334464" stroke-miterlimit="10"/>
<path fill-rule="evenodd" clip-rule="evenodd" d="M158.407 132.908C157.973 134.914 157.537 136.921 157.102 138.928C156.951 139.627 152.548 140.376 151.729 140.612C152.548 140.849 156.951 141.597 157.102 142.297C157.537 144.304 157.973 146.311 158.407 148.318C158.842 146.311 159.276 144.304 159.711 142.297C159.863 141.597 164.266 140.849 165.084 140.612C164.266 140.376 159.863 139.627 159.711 138.928C159.276 136.921 158.842 134.914 158.407 132.908Z" fill="white" stroke="white" stroke-width="0.0334464" stroke-miterlimit="10"/>
<path fill-rule="evenodd" clip-rule="evenodd" d="M158.442 176.05C158.008 178.057 157.574 180.063 157.139 182.07C156.987 182.769 152.584 183.519 151.765 183.755C152.584 183.991 156.987 184.74 157.139 185.439C157.574 187.446 158.008 189.453 158.442 191.461C158.877 189.453 159.313 187.446 159.748 185.439C159.899 184.74 164.302 183.991 165.121 183.755C164.302 183.519 159.899 182.769 159.748 182.07C159.313 180.063 158.877 178.057 158.442 176.05Z" fill="white" stroke="white" stroke-width="0.0334464" stroke-miterlimit="10"/>
<path fill-rule="evenodd" clip-rule="evenodd" d="M121.024 217.672C120.59 219.678 120.156 221.685 119.72 223.693C119.569 224.392 115.166 225.14 114.348 225.376C115.166 225.612 119.569 226.362 119.72 227.062C120.156 229.068 120.59 231.075 121.024 233.081C121.459 231.075 121.894 229.068 122.33 227.062C122.481 226.362 126.884 225.612 127.702 225.376C126.884 225.14 122.481 224.392 122.33 223.693C121.894 221.685 121.459 219.678 121.024 217.672Z" fill="white" stroke="white" stroke-width="0.0334464" stroke-miterlimit="10"/>
<path fill-rule="evenodd" clip-rule="evenodd" d="M102.326 217.672C101.892 219.678 101.457 221.685 101.022 223.693C100.87 224.392 96.4674 225.14 95.6482 225.376C96.4674 225.612 100.87 226.362 101.022 227.062C101.457 229.068 101.892 231.075 102.326 233.081C102.762 231.075 103.196 229.068 103.631 227.062C103.783 226.362 108.186 225.612 109.004 225.376C108.186 225.14 103.783 224.392 103.631 223.693C103.196 221.685 102.762 219.678 102.326 217.672Z" fill="white" stroke="white" stroke-width="0.0334464" stroke-miterlimit="10"/>
<path fill-rule="evenodd" clip-rule="evenodd" d="M139.709 217.635C139.274 219.643 138.839 221.65 138.405 223.656C138.253 224.355 133.849 225.104 133.031 225.341C133.849 225.577 138.253 226.327 138.405 227.026C138.839 229.032 139.274 231.039 139.709 233.046C140.145 231.039 140.579 229.032 141.013 227.026C141.165 226.327 145.567 225.577 146.387 225.341C145.567 225.104 141.165 224.355 141.013 223.656C140.579 221.65 140.145 219.643 139.709 217.635Z" fill="white" stroke="white" stroke-width="0.0334464" stroke-miterlimit="10"/>
<path fill-rule="evenodd" clip-rule="evenodd" d="M83.6815 217.692C83.2468 219.699 82.8122 221.706 82.3775 223.712C82.2263 224.413 77.8233 225.161 77.0042 225.397C77.8233 225.633 82.2263 226.381 82.3775 227.082C82.8122 229.088 83.2468 231.095 83.6815 233.102C84.1169 231.095 84.5516 229.088 84.9869 227.082C85.1381 226.381 89.541 225.633 90.3596 225.397C89.541 225.161 85.1381 224.413 84.9869 223.712C84.5516 221.706 84.1169 219.699 83.6815 217.692Z" fill="white" stroke="white" stroke-width="0.0334464" stroke-miterlimit="10"/>
<path fill-rule="evenodd" clip-rule="evenodd" d="M177.078 217.666C176.643 219.674 176.209 221.68 175.775 223.688C175.622 224.387 171.219 225.135 170.399 225.372C171.219 225.607 175.622 226.357 175.775 227.057C176.209 229.062 176.643 231.07 177.078 233.076C177.513 231.07 177.947 229.062 178.383 227.057C178.534 226.357 182.937 225.607 183.757 225.372C182.937 225.135 178.534 224.387 178.383 223.688C177.947 221.68 177.513 219.674 177.078 217.666Z" fill="white" stroke="white" stroke-width="0.0334464" stroke-miterlimit="10"/>
<path fill-rule="evenodd" clip-rule="evenodd" d="M158.379 217.666C157.945 219.674 157.51 221.68 157.076 223.688C156.923 224.387 152.522 225.135 151.702 225.372C152.522 225.607 156.923 226.357 157.076 227.057C157.51 229.062 157.945 231.07 158.379 233.076C158.815 231.07 159.25 229.062 159.685 227.057C159.837 226.357 164.24 225.607 165.058 225.372C164.24 225.135 159.837 224.387 159.685 223.688C159.25 221.68 158.815 219.674 158.379 217.666Z" fill="white" stroke="white" stroke-width="0.0334464" stroke-miterlimit="10"/>
<path fill-rule="evenodd" clip-rule="evenodd" d="M121.024 239.246C120.59 241.252 120.156 243.259 119.72 245.266C119.569 245.965 115.166 246.714 114.348 246.95C115.166 247.186 119.569 247.935 119.72 248.635C120.156 250.642 120.59 252.648 121.024 254.655C121.459 252.648 121.894 250.642 122.33 248.635C122.481 247.935 126.884 247.186 127.702 246.95C126.884 246.714 122.481 245.965 122.33 245.266C121.894 243.259 121.459 241.252 121.024 239.246Z" fill="white" stroke="white" stroke-width="0.0334464" stroke-miterlimit="10"/>
<path fill-rule="evenodd" clip-rule="evenodd" d="M102.326 239.246C101.892 241.252 101.457 243.259 101.022 245.266C100.87 245.965 96.4674 246.714 95.6482 246.95C96.4674 247.186 100.87 247.935 101.022 248.635C101.457 250.642 101.892 252.648 102.326 254.655C102.762 252.648 103.196 250.642 103.631 248.635C103.783 247.935 108.186 247.186 109.004 246.95C108.186 246.714 103.783 245.965 103.631 245.266C103.196 243.259 102.762 241.252 102.326 239.246Z" fill="white" stroke="white" stroke-width="0.0334464" stroke-miterlimit="10"/>
<path fill-rule="evenodd" clip-rule="evenodd" d="M139.709 239.209C139.274 241.216 138.839 243.222 138.405 245.23C138.253 245.929 133.849 246.678 133.031 246.915C133.849 247.15 138.253 247.9 138.405 248.6C138.839 250.605 139.274 252.613 139.709 254.618C140.145 252.613 140.579 250.605 141.013 248.6C141.165 247.9 145.567 247.15 146.387 246.915C145.567 246.678 141.165 245.929 141.013 245.23C140.579 243.222 140.145 241.216 139.709 239.209Z" fill="white" stroke="white" stroke-width="0.0334464" stroke-miterlimit="10"/>
<path fill-rule="evenodd" clip-rule="evenodd" d="M83.6815 239.266C83.2468 241.273 82.8122 243.28 82.3775 245.287C82.2263 245.985 77.8233 246.735 77.0042 246.971C77.8233 247.207 82.2263 247.956 82.3775 248.656C82.8122 250.662 83.2468 252.669 83.6815 254.676C84.1169 252.669 84.5516 250.662 84.9869 248.656C85.1381 247.956 89.541 247.207 90.3596 246.971C89.541 246.735 85.1381 245.985 84.9869 245.287C84.5516 243.28 84.1169 241.273 83.6815 239.266Z" fill="white" stroke="white" stroke-width="0.0334464" stroke-miterlimit="10"/>
<path fill-rule="evenodd" clip-rule="evenodd" d="M177.078 239.24C176.643 241.247 176.209 243.254 175.775 245.26C175.622 245.961 171.219 246.709 170.399 246.945C171.219 247.181 175.622 247.931 175.775 248.63C176.209 250.636 176.643 252.643 177.078 254.65C177.513 252.643 177.947 250.636 178.383 248.63C178.534 247.931 182.937 247.181 183.757 246.945C182.937 246.709 178.534 245.961 178.383 245.26C177.947 243.254 177.513 241.247 177.078 239.24Z" fill="white" stroke="white" stroke-width="0.0334464" stroke-miterlimit="10"/>
<path fill-rule="evenodd" clip-rule="evenodd" d="M158.379 239.24C157.945 241.247 157.51 243.254 157.076 245.26C156.923 245.961 152.522 246.709 151.702 246.945C152.522 247.181 156.923 247.931 157.076 248.63C157.51 250.636 157.945 252.643 158.379 254.65C158.815 252.643 159.25 250.636 159.685 248.63C159.837 247.931 164.24 247.181 165.058 246.945C164.24 246.709 159.837 245.961 159.685 245.26C159.25 243.254 158.815 241.247 158.379 239.24Z" fill="white" stroke="white" stroke-width="0.0334464" stroke-miterlimit="10"/>
<path fill-rule="evenodd" clip-rule="evenodd" d="M121.024 260.82C120.59 262.825 120.156 264.833 119.72 266.84C119.569 267.539 115.166 268.288 114.348 268.523C115.166 268.76 119.569 269.509 119.72 270.208C120.156 272.216 120.59 274.221 121.024 276.229C121.459 274.221 121.894 272.216 122.33 270.208C122.481 269.509 126.884 268.76 127.702 268.523C126.884 268.288 122.481 267.539 122.33 266.84C121.894 264.833 121.459 262.825 121.024 260.82Z" fill="white" stroke="white" stroke-width="0.0334464" stroke-miterlimit="10"/>
<path fill-rule="evenodd" clip-rule="evenodd" d="M102.326 260.82C101.892 262.825 101.457 264.833 101.022 266.84C100.87 267.539 96.4674 268.288 95.6482 268.523C96.4674 268.76 100.87 269.509 101.022 270.208C101.457 272.216 101.892 274.221 102.326 276.229C102.762 274.221 103.196 272.216 103.631 270.208C103.783 269.509 108.186 268.76 109.004 268.523C108.186 268.288 103.783 267.539 103.631 266.84C103.196 264.833 102.762 262.825 102.326 260.82Z" fill="white" stroke="white" stroke-width="0.0334464" stroke-miterlimit="10"/>
<path fill-rule="evenodd" clip-rule="evenodd" d="M139.709 260.783C139.274 262.79 138.839 264.797 138.405 266.805C138.253 267.504 133.849 268.252 133.031 268.488C133.849 268.724 138.253 269.472 138.405 270.173C138.839 272.179 139.274 274.186 139.709 276.193C140.145 274.186 140.579 272.179 141.013 270.173C141.165 269.472 145.567 268.724 146.387 268.488C145.567 268.252 141.165 267.504 141.013 266.805C140.579 264.797 140.145 262.79 139.709 260.783Z" fill="white" stroke="white" stroke-width="0.0334464" stroke-miterlimit="10"/>
<path fill-rule="evenodd" clip-rule="evenodd" d="M83.6815 260.841C83.2468 262.846 82.8122 264.854 82.3775 266.859C82.2263 267.558 77.8233 268.308 77.0042 268.544C77.8233 268.781 82.2263 269.53 82.3775 270.229C82.8122 272.237 83.2468 274.242 83.6815 276.25C84.1169 274.242 84.5516 272.237 84.9869 270.229C85.1381 269.53 89.541 268.781 90.3596 268.544C89.541 268.308 85.1381 267.558 84.9869 266.859C84.5516 264.854 84.1169 262.846 83.6815 260.841Z" fill="white" stroke="white" stroke-width="0.0334464" stroke-miterlimit="10"/>
<path fill-rule="evenodd" clip-rule="evenodd" d="M177.078 260.815C176.643 262.82 176.209 264.828 175.775 266.835C175.622 267.534 171.219 268.283 170.399 268.519C171.219 268.755 175.622 269.504 175.775 270.203C176.209 272.211 176.643 274.216 177.078 276.224C177.513 274.216 177.947 272.211 178.383 270.203C178.534 269.504 182.937 268.755 183.757 268.519C182.937 268.283 178.534 267.534 178.383 266.835C177.947 264.828 177.513 262.82 177.078 260.815Z" fill="white" stroke="white" stroke-width="0.0334464" stroke-miterlimit="10"/>
<path fill-rule="evenodd" clip-rule="evenodd" d="M158.379 260.815C157.945 262.82 157.51 264.828 157.076 266.835C156.923 267.534 152.522 268.283 151.702 268.519C152.522 268.755 156.923 269.504 157.076 270.203C157.51 272.211 157.945 274.216 158.379 276.224C158.815 274.216 159.25 272.211 159.685 270.203C159.837 269.504 164.24 268.755 165.058 268.519C164.24 268.283 159.837 267.534 159.685 266.835C159.25 264.828 158.815 262.82 158.379 260.815Z" fill="white" stroke="white" stroke-width="0.0334464" stroke-miterlimit="10"/>
<path fill-rule="evenodd" clip-rule="evenodd" d="M121.024 197.639C120.59 199.647 120.156 201.652 119.72 203.66C119.569 204.359 115.166 205.107 114.348 205.345C115.166 205.581 119.569 206.329 119.72 207.029C120.156 209.035 120.59 211.043 121.024 213.048C121.459 211.043 121.894 209.035 122.33 207.029C122.481 206.329 126.884 205.579 127.702 205.345C126.884 205.107 122.481 204.359 122.33 203.66C121.894 201.652 121.459 199.647 121.024 197.639Z" fill="white" stroke="white" stroke-width="0.0334464" stroke-miterlimit="10"/>
<path fill-rule="evenodd" clip-rule="evenodd" d="M102.326 197.639C101.892 199.647 101.457 201.652 101.022 203.66C100.87 204.359 96.4674 205.107 95.6482 205.345C96.4674 205.579 100.87 206.329 101.022 207.029C101.457 209.035 101.892 211.043 102.326 213.048C102.762 211.043 103.196 209.035 103.631 207.029C103.783 206.329 108.186 205.579 109.004 205.345C108.186 205.107 103.783 204.359 103.631 203.66C103.196 201.652 102.762 199.647 102.326 197.639Z" fill="white" stroke="white" stroke-width="0.0334464" stroke-miterlimit="10"/>
<path fill-rule="evenodd" clip-rule="evenodd" d="M139.709 197.603C139.274 199.61 138.839 201.617 138.405 203.623C138.253 204.322 133.849 205.072 133.031 205.308C133.849 205.544 138.253 206.294 138.405 206.993C138.839 208.999 139.274 211.006 139.709 213.013C140.145 211.006 140.579 208.999 141.013 206.993C141.165 206.294 145.567 205.544 146.387 205.308C145.567 205.072 141.165 204.322 141.013 203.623C140.579 201.617 140.145 199.61 139.709 197.603Z" fill="white" stroke="white" stroke-width="0.0334464" stroke-miterlimit="10"/>
<path fill-rule="evenodd" clip-rule="evenodd" d="M83.6815 197.659C83.2468 199.666 82.8122 201.673 82.3775 203.681C82.2263 204.38 77.8233 205.128 77.0042 205.364C77.8233 205.6 82.2263 206.35 82.3775 207.05C82.8122 209.055 83.2468 211.063 83.6815 213.069C84.1169 211.063 84.5516 209.055 84.9869 207.05C85.1381 206.35 89.541 205.6 90.3596 205.364C89.541 205.128 85.1381 204.38 84.9869 203.681C84.5516 201.673 84.1169 199.666 83.6815 197.659Z" fill="white" stroke="white" stroke-width="0.0334464" stroke-miterlimit="10"/>
<path fill-rule="evenodd" clip-rule="evenodd" d="M177.078 197.633C176.643 199.641 176.209 201.647 175.775 203.655C175.622 204.354 171.219 205.102 170.399 205.339C171.219 205.575 175.622 206.324 175.775 207.024C176.209 209.029 176.643 211.037 177.078 213.044C177.513 211.037 177.947 209.029 178.383 207.024C178.534 206.324 182.937 205.575 183.757 205.339C182.937 205.102 178.534 204.354 178.383 203.655C177.947 201.647 177.513 199.641 177.078 197.633Z" fill="white" stroke="white" stroke-width="0.0334464" stroke-miterlimit="10"/>
<path fill-rule="evenodd" clip-rule="evenodd" d="M158.379 197.633C157.945 199.641 157.51 201.647 157.076 203.655C156.923 204.354 152.522 205.102 151.702 205.339C152.522 205.575 156.923 206.324 157.076 207.024C157.51 209.029 157.945 211.037 158.379 213.044C158.815 211.037 159.25 209.029 159.685 207.024C159.837 206.324 164.24 205.575 165.058 205.339C164.24 205.102 159.837 204.354 159.685 203.655C159.25 201.647 158.815 199.641 158.379 197.633Z" fill="white" stroke="white" stroke-width="0.0334464" stroke-miterlimit="10"/>
<path fill-rule="evenodd" clip-rule="evenodd" d="M102.326 111.345C101.892 113.351 101.457 115.358 101.022 117.365C100.87 118.064 96.4674 118.813 95.6482 119.049C96.4674 119.285 100.87 120.034 101.022 120.734C101.457 122.741 101.892 124.747 102.326 126.754C102.762 124.747 103.196 122.741 103.631 120.734C103.783 120.034 108.186 119.285 109.004 119.049C108.186 118.813 103.783 118.064 103.631 117.365C103.196 115.358 102.762 113.351 102.326 111.345Z" fill="white" stroke="white" stroke-width="0.0334464" stroke-miterlimit="10"/>
<path fill-rule="evenodd" clip-rule="evenodd" d="M83.6281 111.345C83.1934 113.351 82.7587 115.358 82.324 117.365C82.1728 118.064 77.7693 118.813 76.9501 119.049C77.7693 119.285 82.1728 120.034 82.324 120.734C82.7587 122.741 83.1934 124.747 83.6281 126.754C84.0634 124.747 84.4981 122.741 84.9328 120.734C85.0847 120.034 89.4876 119.285 90.3061 119.049C89.4876 118.813 85.0847 118.064 84.9328 117.365C84.4981 115.358 84.0634 113.351 83.6281 111.345Z" fill="white" stroke="white" stroke-width="0.0334464" stroke-miterlimit="10"/>
<path fill-rule="evenodd" clip-rule="evenodd" d="M139.717 111.345C139.283 113.351 138.849 115.358 138.414 117.365C138.263 118.064 133.86 118.813 133.04 119.049C133.86 119.285 138.263 120.034 138.414 120.734C138.849 122.741 139.283 124.747 139.717 126.754C140.153 124.747 140.588 122.741 141.023 120.734C141.174 120.034 145.577 119.285 146.396 119.049C145.577 118.813 141.174 118.064 141.023 117.365C140.588 115.358 140.153 113.351 139.717 111.345Z" fill="white" stroke="white" stroke-width="0.0334464" stroke-miterlimit="10"/>
<path fill-rule="evenodd" clip-rule="evenodd" d="M121.016 111.345C120.58 113.351 120.145 115.358 119.711 117.365C119.56 118.064 115.157 118.813 114.337 119.049C115.157 119.285 119.56 120.034 119.711 120.734C120.145 122.741 120.58 124.747 121.016 126.754C121.451 124.747 121.885 122.741 122.321 120.734C122.472 120.034 126.875 119.285 127.693 119.049C126.875 118.813 122.472 118.064 122.321 117.365C121.885 115.358 121.451 113.351 121.016 111.345Z" fill="white" stroke="white" stroke-width="0.0334464" stroke-miterlimit="10"/>
<path fill-rule="evenodd" clip-rule="evenodd" d="M83.6379 89.7554C83.2032 91.7621 82.7678 93.7688 82.3332 95.7755C82.1813 96.475 77.779 97.2241 76.9598 97.4601C77.779 97.6968 82.182 98.4452 82.3332 99.1447C82.7678 101.151 83.2032 103.158 83.6379 105.165C84.0726 103.158 84.5072 101.151 84.9426 99.1447C85.0938 98.4452 89.4967 97.6968 90.3152 97.4601C89.4967 97.2241 85.0938 96.475 84.9426 95.7755C84.5072 93.7688 84.0726 91.7621 83.6379 89.7554Z" fill="white" stroke="white" stroke-width="0.0334464" stroke-miterlimit="10"/>
<path fill-rule="evenodd" clip-rule="evenodd" d="M102.326 89.7704C101.892 91.7771 101.457 93.7845 101.022 95.7912C100.87 96.4907 96.4674 97.2391 95.6482 97.4758C96.4674 97.7118 100.87 98.4609 101.022 99.1604C101.457 101.167 101.892 103.174 102.326 105.18C102.762 103.174 103.196 101.167 103.631 99.1604C103.783 98.4609 108.186 97.7118 109.004 97.4758C108.186 97.2391 103.783 96.4907 103.631 95.7912C103.196 93.7845 102.762 91.7771 102.326 89.7704Z" fill="white" stroke="white" stroke-width="0.0334464" stroke-miterlimit="10"/>
<path fill-rule="evenodd" clip-rule="evenodd" d="M121.024 89.7704C120.59 91.7771 120.156 93.7845 119.72 95.7912C119.569 96.4907 115.166 97.2391 114.348 97.4758C115.166 97.7118 119.569 98.4609 119.72 99.1604C120.156 101.167 120.59 103.174 121.024 105.18C121.459 103.174 121.894 101.167 122.33 99.1604C122.481 98.4609 126.884 97.7118 127.702 97.4758C126.884 97.2391 122.481 96.4907 122.33 95.7912C121.894 93.7845 121.459 91.7771 121.024 89.7704Z" fill="white" stroke="white" stroke-width="0.0334464" stroke-miterlimit="10"/>
<path fill-rule="evenodd" clip-rule="evenodd" d="M139.722 89.7704C139.287 91.7771 138.852 93.7845 138.418 95.7912C138.266 96.4907 133.864 97.2391 133.044 97.4758C133.864 97.7118 138.266 98.4609 138.418 99.1604C138.852 101.167 139.287 103.174 139.722 105.18C140.158 103.174 140.592 101.167 141.027 99.1604C141.178 98.4609 145.581 97.7118 146.401 97.4758C145.581 97.2391 141.178 96.4907 141.027 95.7912C140.592 93.7845 140.158 91.7771 139.722 89.7704Z" fill="white" stroke="white" stroke-width="0.0334464" stroke-miterlimit="10"/>
<path fill-rule="evenodd" clip-rule="evenodd" d="M177.1 111.318C176.666 113.325 176.231 115.332 175.796 117.339C175.644 118.039 171.242 118.787 170.423 119.023C171.242 119.26 175.644 120.009 175.796 120.708C176.231 122.714 176.666 124.721 177.1 126.728C177.534 124.721 177.97 122.714 178.405 120.708C178.556 120.009 182.959 119.26 183.778 119.023C182.959 118.787 178.556 118.039 178.405 117.339C177.97 115.332 177.534 113.325 177.1 111.318Z" fill="white" stroke="white" stroke-width="0.0334464" stroke-miterlimit="10"/>
<path fill-rule="evenodd" clip-rule="evenodd" d="M177.119 89.7704C176.683 91.7771 176.249 93.7845 175.814 95.7912C175.663 96.4907 171.26 97.2391 170.441 97.4758C171.26 97.7118 175.663 98.4609 175.814 99.1604C176.249 101.167 176.683 103.174 177.119 105.18C177.553 103.174 177.988 101.167 178.423 99.1604C178.574 98.4609 182.977 97.7118 183.796 97.4758C182.977 97.2391 178.574 96.4907 178.423 95.7912C177.988 93.7845 177.553 91.7771 177.119 89.7704Z" fill="white" stroke="white" stroke-width="0.0334464" stroke-miterlimit="10"/>
<path fill-rule="evenodd" clip-rule="evenodd" d="M158.403 111.318C157.968 113.325 157.532 115.332 157.098 117.339C156.947 118.039 152.544 118.787 151.724 119.023C152.544 119.26 156.947 120.009 157.098 120.708C157.532 122.714 157.968 124.721 158.403 126.728C158.838 124.721 159.272 122.714 159.706 120.708C159.859 120.009 164.262 119.26 165.08 119.023C164.262 118.787 159.859 118.039 159.706 117.339C159.272 115.332 158.838 113.325 158.403 111.318Z" fill="white" stroke="white" stroke-width="0.0334464" stroke-miterlimit="10"/>
<path fill-rule="evenodd" clip-rule="evenodd" d="M158.42 89.7704C157.986 91.7771 157.55 93.7845 157.115 95.7912C156.964 96.4907 152.561 97.2391 151.742 97.4758C152.561 97.7118 156.964 98.4609 157.115 99.1604C157.55 101.167 157.986 103.174 158.42 105.18C158.855 103.174 159.289 101.167 159.725 99.1604C159.876 98.4609 164.279 97.7118 165.097 97.4758C164.279 97.2391 159.876 96.4907 159.725 95.7912C159.289 93.7845 158.855 91.7771 158.42 89.7704Z" fill="white" stroke="white" stroke-width="0.0334464" stroke-miterlimit="10"/>
<path fill-rule="evenodd" clip-rule="evenodd" d="M102.326 68.1969C101.892 70.2036 101.457 72.2103 101.022 74.2177C100.87 74.9165 96.4674 75.6656 95.6482 75.9023C96.4674 76.1383 100.87 76.8867 101.022 77.5862C101.457 79.5929 101.892 81.6003 102.326 83.607C102.762 81.6003 103.196 79.5929 103.631 77.5862C103.783 76.8867 108.186 76.1383 109.004 75.9023C108.186 75.6656 103.783 74.9165 103.631 74.2177C103.196 72.2103 102.762 70.2036 102.326 68.1969Z" fill="white" stroke="white" stroke-width="0.0334464" stroke-miterlimit="10"/>
<path fill-rule="evenodd" clip-rule="evenodd" d="M83.6281 68.1969C83.1934 70.2036 82.7587 72.2103 82.324 74.2177C82.1728 74.9165 77.7693 75.6656 76.9501 75.9023C77.7693 76.1383 82.1728 76.8867 82.324 77.5862C82.7587 79.5929 83.1934 81.6003 83.6281 83.607C84.0634 81.6003 84.4981 79.5929 84.9328 77.5862C85.0847 76.8867 89.4876 76.1383 90.3061 75.9023C89.4876 75.6656 85.0847 74.9165 84.9328 74.2177C84.4981 72.2103 84.0634 70.2036 83.6281 68.1969Z" fill="white" stroke="white" stroke-width="0.0334464" stroke-miterlimit="10"/>
<path fill-rule="evenodd" clip-rule="evenodd" d="M139.717 68.1969C139.283 70.2036 138.849 72.2103 138.414 74.2177C138.263 74.9165 133.86 75.6656 133.04 75.9023C133.86 76.1383 138.263 76.8867 138.414 77.5862C138.849 79.5929 139.283 81.6003 139.717 83.607C140.153 81.6003 140.588 79.5929 141.023 77.5862C141.174 76.8867 145.577 76.1383 146.396 75.9023C145.577 75.6656 141.174 74.9165 141.023 74.2177C140.588 72.2103 140.153 70.2036 139.717 68.1969Z" fill="white" stroke="white" stroke-width="0.0334464" stroke-miterlimit="10"/>
<path fill-rule="evenodd" clip-rule="evenodd" d="M121.016 68.1969C120.58 70.2036 120.145 72.2103 119.711 74.2177C119.56 74.9165 115.157 75.6656 114.337 75.9023C115.157 76.1383 119.56 76.8867 119.711 77.5862C120.145 79.5929 120.58 81.6003 121.016 83.607C121.451 81.6003 121.885 79.5929 122.321 77.5862C122.472 76.8867 126.875 76.1383 127.693 75.9023C126.875 75.6656 122.472 74.9165 122.321 74.2177C121.885 72.2103 121.451 70.2036 121.016 68.1969Z" fill="white" stroke="white" stroke-width="0.0334464" stroke-miterlimit="10"/>
<path fill-rule="evenodd" clip-rule="evenodd" d="M83.6379 46.6078C83.2032 48.6145 82.7678 50.6212 82.3332 52.6279C82.182 53.3274 77.779 54.0765 76.9598 54.3125C77.779 54.5491 82.1813 55.2982 82.3332 55.9971C82.7678 58.0038 83.2032 60.0105 83.6379 62.0172C84.0726 60.0105 84.5072 58.0038 84.9426 55.9971C85.0938 55.2982 89.4967 54.5491 90.3152 54.3125C89.4967 54.0765 85.0938 53.3274 84.9426 52.6279C84.5072 50.6212 84.0726 48.6145 83.6379 46.6078Z" fill="white" stroke="white" stroke-width="0.0334464" stroke-miterlimit="10"/>
<path fill-rule="evenodd" clip-rule="evenodd" d="M102.326 46.6235C101.892 48.6301 101.457 50.6368 101.022 52.6435C100.87 53.343 96.4674 54.0921 95.6482 54.3281C96.4674 54.5641 100.87 55.3132 101.022 56.0128C101.457 58.0194 101.892 60.0261 102.326 62.0328C102.762 60.0261 103.196 58.0194 103.631 56.0128C103.783 55.3132 108.186 54.5641 109.004 54.3281C108.186 54.0921 103.783 53.343 103.631 52.6435C103.196 50.6368 102.762 48.6301 102.326 46.6235Z" fill="white" stroke="white" stroke-width="0.0334464" stroke-miterlimit="10"/>
<path fill-rule="evenodd" clip-rule="evenodd" d="M121.024 46.6235C120.59 48.6301 120.156 50.6368 119.72 52.6435C119.569 53.343 115.166 54.0921 114.348 54.3281C115.166 54.5641 119.569 55.3132 119.72 56.0128C120.156 58.0194 120.59 60.0261 121.024 62.0328C121.459 60.0261 121.894 58.0194 122.33 56.0128C122.481 55.3132 126.884 54.5641 127.702 54.3281C126.884 54.0921 122.481 53.343 122.33 52.6435C121.894 50.6368 121.459 48.6301 121.024 46.6235Z" fill="white" stroke="white" stroke-width="0.0334464" stroke-miterlimit="10"/>
<path fill-rule="evenodd" clip-rule="evenodd" d="M139.722 46.6235C139.287 48.6301 138.852 50.6368 138.418 52.6435C138.266 53.343 133.864 54.0921 133.044 54.3281C133.864 54.5641 138.266 55.3132 138.418 56.0128C138.852 58.0194 139.287 60.0261 139.722 62.0328C140.158 60.0261 140.592 58.0194 141.027 56.0128C141.178 55.3132 145.581 54.5641 146.401 54.3281C145.581 54.0921 141.178 53.343 141.027 52.6435C140.592 50.6368 140.158 48.6301 139.722 46.6235Z" fill="white" stroke="white" stroke-width="0.0334464" stroke-miterlimit="10"/>
<path fill-rule="evenodd" clip-rule="evenodd" d="M177.1 68.1715C176.666 70.1782 176.231 72.1849 175.796 74.1916C175.644 74.8911 171.242 75.6402 170.423 75.8762C171.242 76.1122 175.644 76.8613 175.796 77.5608C176.231 79.5675 176.666 81.5742 177.1 83.5809C177.534 81.5742 177.97 79.5675 178.405 77.5608C178.556 76.8613 182.959 76.1122 183.778 75.8762C182.959 75.6402 178.556 74.8911 178.405 74.1916C177.97 72.1849 177.534 70.1782 177.1 68.1715Z" fill="white" stroke="white" stroke-width="0.0334464" stroke-miterlimit="10"/>
<path fill-rule="evenodd" clip-rule="evenodd" d="M177.119 46.6235C176.683 48.6301 176.249 50.6368 175.814 52.6435C175.663 53.343 171.26 54.0921 170.441 54.3281C171.26 54.5641 175.663 55.3132 175.814 56.0128C176.249 58.0194 176.683 60.0261 177.119 62.0328C177.553 60.0261 177.988 58.0194 178.423 56.0128C178.574 55.3132 182.977 54.5641 183.796 54.3281C182.977 54.0921 178.574 53.343 178.423 52.6435C177.988 50.6368 177.553 48.6301 177.119 46.6235Z" fill="white" stroke="white" stroke-width="0.0334464" stroke-miterlimit="10"/>
<path fill-rule="evenodd" clip-rule="evenodd" d="M158.403 68.1715C157.968 70.1782 157.532 72.1849 157.098 74.1916C156.947 74.8911 152.544 75.6402 151.724 75.8762C152.544 76.1122 156.947 76.8613 157.098 77.5608C157.532 79.5675 157.968 81.5742 158.403 83.5809C158.838 81.5742 159.272 79.5675 159.706 77.5608C159.859 76.8613 164.262 76.1122 165.08 75.8762C164.262 75.6402 159.859 74.8911 159.706 74.1916C159.272 72.1849 158.838 70.1782 158.403 68.1715Z" fill="white" stroke="white" stroke-width="0.0334464" stroke-miterlimit="10"/>
<path fill-rule="evenodd" clip-rule="evenodd" d="M158.42 46.6235C157.986 48.6301 157.55 50.6368 157.115 52.6435C156.964 53.343 152.561 54.0921 151.742 54.3281C152.561 54.5641 156.964 55.3132 157.115 56.0128C157.55 58.0194 157.986 60.0261 158.42 62.0328C158.855 60.0261 159.289 58.0194 159.725 56.0128C159.876 55.3132 164.279 54.5641 165.097 54.3281C164.279 54.0921 159.876 53.343 159.725 52.6435C159.289 50.6368 158.855 48.6301 158.42 46.6235Z" fill="white" stroke="white" stroke-width="0.0334464" stroke-miterlimit="10"/>
<path fill-rule="evenodd" clip-rule="evenodd" d="M46.2189 176.085C45.7842 178.093 45.3495 180.099 44.9148 182.107C44.7636 182.806 40.3607 183.554 39.5415 183.791C40.3607 184.027 44.7636 184.776 44.9148 185.476C45.3495 187.481 45.7842 189.489 46.2189 191.496C46.6542 189.489 47.0889 187.481 47.5236 185.476C47.6754 184.776 52.0784 184.027 52.8969 183.791C52.0784 183.554 47.6754 182.806 47.5236 182.107C47.0889 180.099 46.6542 178.093 46.2189 176.085Z" fill="white" stroke="white" stroke-width="0.0334464" stroke-miterlimit="10"/>
<path fill-rule="evenodd" clip-rule="evenodd" d="M46.2548 154.523C45.8201 156.53 45.3854 158.536 44.9507 160.543C44.7995 161.242 40.3966 161.99 39.5774 162.228C40.3966 162.464 44.7995 163.213 44.9507 163.912C45.3854 165.919 45.8201 167.926 46.2548 169.932C46.6901 167.926 47.1248 165.919 47.5601 163.912C47.7113 163.213 52.1143 162.464 52.9328 162.228C52.1143 161.99 47.7113 161.242 47.5601 160.543C47.1248 158.536 46.6901 156.53 46.2548 154.523Z" fill="white" stroke="white" stroke-width="0.0334464" stroke-miterlimit="10"/>
<path fill-rule="evenodd" clip-rule="evenodd" d="M46.2769 132.913C45.8422 134.92 45.4075 136.927 44.9728 138.934C44.821 139.632 40.4187 140.382 39.5995 140.618C40.4187 140.854 44.821 141.603 44.9728 142.303C45.4075 144.309 45.8422 146.316 46.2769 148.323C46.7122 146.316 47.1469 144.309 47.5822 142.303C47.7334 141.603 52.1364 140.854 52.9549 140.618C52.1364 140.382 47.7334 139.632 47.5822 138.934C47.1469 136.927 46.7122 134.92 46.2769 132.913Z" fill="white" stroke="white" stroke-width="0.0334464" stroke-miterlimit="10"/>
<path fill-rule="evenodd" clip-rule="evenodd" d="M46.2326 217.672C45.7979 219.678 45.3632 221.685 44.9285 223.693C44.7773 224.392 40.3738 225.14 39.5546 225.376C40.3738 225.612 44.7773 226.362 44.9285 227.062C45.3632 229.068 45.7979 231.075 46.2326 233.081C46.6673 231.075 47.102 229.068 47.5373 227.062C47.6885 226.362 52.0914 225.612 52.91 225.376C52.0914 225.14 47.6885 224.392 47.5373 223.693C47.102 221.685 46.6673 219.678 46.2326 217.672Z" fill="white" stroke="white" stroke-width="0.0334464" stroke-miterlimit="10"/>
<path fill-rule="evenodd" clip-rule="evenodd" d="M46.2326 239.246C45.7979 241.252 45.3632 243.259 44.9285 245.266C44.7773 245.965 40.3738 246.714 39.5546 246.95C40.3738 247.186 44.7773 247.935 44.9285 248.635C45.3632 250.642 45.7979 252.648 46.2326 254.655C46.6673 252.648 47.102 250.642 47.5373 248.635C47.6885 247.935 52.0914 247.186 52.91 246.95C52.0914 246.714 47.6885 245.965 47.5373 245.266C47.102 243.259 46.6673 241.252 46.2326 239.246Z" fill="white" stroke="white" stroke-width="0.0334464" stroke-miterlimit="10"/>
<path fill-rule="evenodd" clip-rule="evenodd" d="M46.2326 260.82C45.7979 262.825 45.3632 264.833 44.9285 266.84C44.7773 267.539 40.3738 268.288 39.5546 268.523C40.3738 268.76 44.7773 269.509 44.9285 270.208C45.3632 272.216 45.7979 274.221 46.2326 276.229C46.6673 274.221 47.102 272.216 47.5373 270.208C47.6885 269.509 52.0914 268.76 52.91 268.523C52.0914 268.288 47.6885 267.539 47.5373 266.84C47.102 264.833 46.6673 262.825 46.2326 260.82Z" fill="white" stroke="white" stroke-width="0.0334464" stroke-miterlimit="10"/>
<path fill-rule="evenodd" clip-rule="evenodd" d="M46.2326 197.639C45.7979 199.647 45.3632 201.652 44.9285 203.66C44.7773 204.359 40.3738 205.107 39.5546 205.345C40.3738 205.579 44.7773 206.329 44.9285 207.029C45.3632 209.035 45.7979 211.043 46.2326 213.048C46.6673 211.043 47.102 209.035 47.5373 207.029C47.6885 206.329 52.0914 205.581 52.91 205.345C52.0914 205.107 47.6885 204.359 47.5373 203.66C47.102 201.652 46.6673 199.647 46.2326 197.639Z" fill="white" stroke="white" stroke-width="0.0334464" stroke-miterlimit="10"/>
<path fill-rule="evenodd" clip-rule="evenodd" d="M46.2463 111.339C45.8116 113.346 45.3762 115.353 44.9416 117.359C44.7904 118.059 40.3874 118.808 39.5682 119.044C40.3874 119.28 44.7897 120.03 44.9416 120.729C45.3762 122.735 45.8116 124.742 46.2463 126.749C46.681 124.742 47.1156 122.735 47.551 120.729C47.7022 120.03 52.1051 119.28 52.9243 119.044C52.1051 118.808 47.7022 118.059 47.551 117.359C47.1156 115.353 46.681 113.346 46.2463 111.339Z" fill="white" stroke="white" stroke-width="0.0334464" stroke-miterlimit="10"/>
<path fill-rule="evenodd" clip-rule="evenodd" d="M46.2326 89.7704C45.7979 91.7771 45.3632 93.7845 44.9285 95.7912C44.7773 96.4907 40.3738 97.2391 39.5546 97.4758C40.3738 97.7118 44.7773 98.4609 44.9285 99.1604C45.3632 101.167 45.7979 103.174 46.2326 105.18C46.6673 103.174 47.102 101.167 47.5373 99.1604C47.6885 98.4609 52.0914 97.7118 52.91 97.4758C52.0914 97.2391 47.6885 96.4907 47.5373 95.7912C47.102 93.7845 46.6673 91.7771 46.2326 89.7704Z" fill="white" stroke="white" stroke-width="0.0334464" stroke-miterlimit="10"/>
<path fill-rule="evenodd" clip-rule="evenodd" d="M46.2463 68.1917C45.8116 70.1991 45.3762 72.2057 44.9416 74.2124C44.7904 74.9113 40.3874 75.6604 39.5682 75.8971C40.3874 76.1331 44.7904 76.8821 44.9416 77.5817C45.3762 79.5884 45.8116 81.5951 46.2463 83.6017C46.681 81.5951 47.1156 79.5884 47.551 77.5817C47.7022 76.8821 52.1051 76.1331 52.9243 75.8971C52.1051 75.6604 47.7022 74.9113 47.551 74.2124C47.1156 72.2057 46.681 70.1991 46.2463 68.1917Z" fill="white" stroke="white" stroke-width="0.0334464" stroke-miterlimit="10"/>
<path fill-rule="evenodd" clip-rule="evenodd" d="M46.2326 46.6235C45.7979 48.6301 45.3632 50.6368 44.9285 52.6435C44.7773 53.343 40.3738 54.0921 39.5546 54.3281C40.3738 54.5641 44.7773 55.3132 44.9285 56.0128C45.3632 58.0194 45.7979 60.0261 46.2326 62.0328C46.6673 60.0261 47.102 58.0194 47.5373 56.0128C47.6885 55.3132 52.0914 54.5641 52.91 54.3281C52.0914 54.0921 47.6885 53.343 47.5373 52.6435C47.102 50.6368 46.6673 48.6301 46.2326 46.6235Z" fill="white" stroke="white" stroke-width="0.0334464" stroke-miterlimit="10"/>
<path fill-rule="evenodd" clip-rule="evenodd" d="M64.917 176.085C64.4824 178.093 64.0477 180.099 63.613 182.107C63.4611 182.806 59.0582 183.554 58.239 183.791C59.0582 184.027 63.4611 184.776 63.613 185.476C64.0477 187.481 64.4824 189.489 64.917 191.496C65.3517 189.489 65.7864 187.481 66.2218 185.476C66.373 184.776 70.7765 184.027 71.5951 183.791C70.7765 183.554 66.373 182.806 66.2218 182.107C65.7864 180.099 65.3517 178.093 64.917 176.085Z" fill="white" stroke="white" stroke-width="0.0334464" stroke-miterlimit="10"/>
<path fill-rule="evenodd" clip-rule="evenodd" d="M64.9529 154.523C64.5182 156.53 64.0835 158.536 63.6488 160.543C63.497 161.242 59.0947 161.99 58.2755 162.228C59.0947 162.464 63.497 163.213 63.6488 163.912C64.0835 165.919 64.5182 167.926 64.9529 169.932C65.3882 167.926 65.8229 165.919 66.2576 163.912C66.4095 163.213 70.8124 162.464 71.6309 162.228C70.8124 161.99 66.4095 161.242 66.2576 160.543C65.8229 158.536 65.3882 156.53 64.9529 154.523Z" fill="white" stroke="white" stroke-width="0.0334464" stroke-miterlimit="10"/>
<path fill-rule="evenodd" clip-rule="evenodd" d="M64.975 132.913C64.5403 134.92 64.1056 136.927 63.671 138.934C63.5191 139.632 59.1162 140.382 58.297 140.618C59.1162 140.854 63.5191 141.603 63.671 142.303C64.1056 144.309 64.5403 146.316 64.975 148.323C65.4097 146.316 65.8451 144.309 66.2797 142.303C66.4316 141.603 70.8339 140.854 71.6531 140.618C70.8339 140.382 66.4316 139.632 66.2797 138.934C65.8451 136.927 65.4097 134.92 64.975 132.913Z" fill="white" stroke="white" stroke-width="0.0334464" stroke-miterlimit="10"/>
<path fill-rule="evenodd" clip-rule="evenodd" d="M64.9307 217.672C64.496 219.678 64.0607 221.685 63.626 223.693C63.4748 224.392 59.0719 225.14 58.2527 225.376C59.0719 225.612 63.4742 226.362 63.626 227.062C64.0607 229.068 64.496 231.075 64.9307 233.081C65.3654 231.075 65.8001 229.068 66.2348 227.062C66.3866 226.362 70.7895 225.612 71.6087 225.376C70.7895 225.14 66.3866 224.392 66.2348 223.693C65.8001 221.685 65.3654 219.678 64.9307 217.672Z" fill="white" stroke="white" stroke-width="0.0334464" stroke-miterlimit="10"/>
<path fill-rule="evenodd" clip-rule="evenodd" d="M64.9307 239.246C64.496 241.252 64.0607 243.259 63.626 245.266C63.4748 245.965 59.0719 246.714 58.2527 246.95C59.0719 247.186 63.4748 247.935 63.626 248.635C64.0607 250.642 64.496 252.648 64.9307 254.655C65.3654 252.648 65.8001 250.642 66.2348 248.635C66.3866 247.935 70.7895 247.186 71.6087 246.95C70.7895 246.714 66.3866 245.965 66.2348 245.266C65.8001 243.259 65.3654 241.252 64.9307 239.246Z" fill="white" stroke="white" stroke-width="0.0334464" stroke-miterlimit="10"/>
<path fill-rule="evenodd" clip-rule="evenodd" d="M64.9307 260.82C64.496 262.825 64.0607 264.833 63.626 266.84C63.4748 267.539 59.0719 268.288 58.2527 268.523C59.0719 268.76 63.4748 269.509 63.626 270.208C64.0607 272.216 64.496 274.221 64.9307 276.229C65.3654 274.221 65.8001 272.216 66.2348 270.208C66.3866 269.509 70.7895 268.76 71.6087 268.523C70.7895 268.288 66.3866 267.539 66.2348 266.84C65.8001 264.833 65.3654 262.825 64.9307 260.82Z" fill="white" stroke="white" stroke-width="0.0334464" stroke-miterlimit="10"/>
<path fill-rule="evenodd" clip-rule="evenodd" d="M64.9307 197.639C64.496 199.647 64.0607 201.652 63.626 203.66C63.4748 204.359 59.0719 205.107 58.2527 205.345C59.0719 205.581 63.4748 206.329 63.626 207.029C64.0607 209.035 64.496 211.043 64.9307 213.048C65.3654 211.043 65.8001 209.035 66.2348 207.029C66.3866 206.329 70.7895 205.579 71.6087 205.345C70.7895 205.107 66.3866 204.359 66.2348 203.66C65.8001 201.652 65.3654 199.647 64.9307 197.639Z" fill="white" stroke="white" stroke-width="0.0334464" stroke-miterlimit="10"/>
<path fill-rule="evenodd" clip-rule="evenodd" d="M64.9437 111.339C64.509 113.346 64.0744 115.353 63.6397 117.359C63.4885 118.059 59.0856 118.808 58.2664 119.044C59.0856 119.28 63.4885 120.03 63.6397 120.729C64.0744 122.735 64.509 124.742 64.9437 126.749C65.3791 124.742 65.8138 122.735 66.2484 120.729C66.4003 120.03 70.8032 119.28 71.6218 119.044C70.8032 118.808 66.4003 118.059 66.2484 117.359C65.8138 115.353 65.3791 113.346 64.9437 111.339Z" fill="white" stroke="white" stroke-width="0.0334464" stroke-miterlimit="10"/>
<path fill-rule="evenodd" clip-rule="evenodd" d="M64.9307 89.7704C64.496 91.7771 64.0607 93.7845 63.626 95.7912C63.4748 96.4907 59.0719 97.2391 58.2527 97.4758C59.0719 97.7118 63.4748 98.4609 63.626 99.1604C64.0607 101.167 64.496 103.174 64.9307 105.18C65.3654 103.174 65.8001 101.167 66.2348 99.1604C66.3866 98.4609 70.7895 97.7118 71.6087 97.4758C70.7895 97.2391 66.3866 96.4907 66.2348 95.7912C65.8001 93.7845 65.3654 91.7771 64.9307 89.7704Z" fill="white" stroke="white" stroke-width="0.0334464" stroke-miterlimit="10"/>
<path fill-rule="evenodd" clip-rule="evenodd" d="M64.9437 68.1917C64.509 70.1991 64.0744 72.2057 63.6397 74.2124C63.4885 74.9113 59.0856 75.6604 58.2664 75.8971C59.0856 76.1331 63.4885 76.8821 63.6397 77.5817C64.0744 79.5884 64.509 81.5951 64.9437 83.6017C65.3791 81.5951 65.8138 79.5884 66.2484 77.5817C66.4003 76.8821 70.8032 76.1331 71.6218 75.8971C70.8032 75.6604 66.4003 74.9113 66.2484 74.2124C65.8138 72.2057 65.3791 70.1991 64.9437 68.1917Z" fill="white" stroke="white" stroke-width="0.0334464" stroke-miterlimit="10"/>
<path fill-rule="evenodd" clip-rule="evenodd" d="M64.9307 46.6235C64.496 48.6301 64.0607 50.6368 63.626 52.6435C63.4748 53.343 59.0719 54.0921 58.2527 54.3281C59.0719 54.5641 63.4748 55.3132 63.626 56.0128C64.0607 58.0194 64.496 60.0261 64.9307 62.0328C65.3654 60.0261 65.8001 58.0194 66.2348 56.0128C66.3866 55.3132 70.7895 54.5641 71.6087 54.3281C70.7895 54.0921 66.3866 53.343 66.2348 52.6435C65.8001 50.6368 65.3654 48.6301 64.9307 46.6235Z" fill="white" stroke="white" stroke-width="0.0334464" stroke-miterlimit="10"/>
<path d="M11.1741 8.86935C8.03419 8.86935 9.17077 17.4398 9.17077 19.1518C9.17077 26.9784 9.17077 34.805 9.17077 42.6316C9.17077 68.5144 9.17077 94.3979 9.17077 120.281C9.17077 175.767 9.17077 231.253 9.17077 286.738C9.17077 293.636 9.17077 300.534 9.17077 307.429C9.17077 309.768 8.28184 314.754 11.7391 314.754C29.5405 314.754 47.3412 314.754 65.1425 314.754C113.727 314.754 162.311 314.754 210.894 314.754C214.562 314.754 213.846 310.833 213.846 308.19C213.846 301.583 213.846 294.976 213.846 288.368C213.846 263.889 213.846 239.407 213.846 214.927C213.846 158.101 213.846 101.274 213.846 44.4473C213.846 36.3527 213.846 28.2569 213.846 20.1617C213.846 17.4339 214.47 13.8619 213.846 11.1811C213.846 7.20493 202.559 8.86935 200.334 8.86935C189.695 8.86935 179.058 8.86935 168.421 8.86935C117.236 8.86935 66.0503 8.86935 14.8654 8.86935C13.635 8.86935 12.4045 8.86935 11.1741 8.86935Z" stroke="#0A0A0C" stroke-width="1.60543" stroke-miterlimit="10"/>
</g>
<defs>
<clipPath id="clip0_3_9">
<rect width="223" height="324" fill="white"/>
</clipPath>
</defs>
</svg>
