<svg width="100" height="102" viewBox="0 0 100 102" fill="none" xmlns="http://www.w3.org/2000/svg">
<path d="M89.1613 49.3201C95.9955 41.52 94.964 12.9231 97.9291 8.99807C94.0119 11.9658 65.4584 10.9328 57.6684 17.7792C52.1668 22.622 53.6981 28.4475 57.039 31.7935C60.695 35.3772 68.6907 33.3533 70.6936 33.4088C69.8802 35.1788 55.4923 42.3045 54.357 41.1675L65.8105 52.6385C64.6752 51.5015 71.7901 37.0916 73.5574 36.277C73.5641 38.0752 71.2286 45.7045 75.1723 49.9544C78.513 53.2966 84.3259 54.83 89.1613 49.3201Z" fill="black"/>
<path d="M19.1652 4.02201C12.4828 10.7146 18.296 18.3238 18.296 18.3238C18.296 18.3238 10.6983 12.5018 4.01589 19.1944C-0.661614 23.8791 -1.8875 31.1291 3.78423 36.8094C11.2784 44.315 32.3715 38.2852 46.3036 46.3741C38.0944 32.5721 44.2476 11.2956 36.7534 3.78999C31.0817 -1.89038 23.8428 -0.662622 19.1652 4.02201Z" fill="#DF0000"/>
<path d="M21.6633 75.5131C21.6633 75.5131 13.7025 74.6272 8.79755 79.5396C5.92609 82.4155 3.70825 89.743 9.60201 95.6458C15.4958 101.549 22.8141 99.3254 25.6837 96.4515C30.5886 91.539 29.7041 83.5662 29.7041 83.5662C30.7897 92.3186 42.1601 98.4731 49.8081 90.8136C53.6367 86.9791 54.7204 79.6273 49.808 74.7074C43.9143 68.8047 34.9312 72.6951 34.9312 72.6951C34.9312 72.6951 41.5158 64.6009 49.808 65.0429L40.1583 55.3785C40.6015 63.6815 32.5178 70.278 32.5178 70.278C32.5178 70.278 36.4023 61.2812 30.5086 55.3785C25.5943 50.4568 18.2536 51.5459 14.4269 55.3785C6.77896 63.0381 12.9241 74.4258 21.6633 75.5131Z" fill="black"/>
<path d="M76.7593 66.1231C67.098 64.672 59.2678 61.2057 59.2678 61.2057C59.2678 61.2057 62.7287 69.0479 64.1776 78.724C65.6227 88.4 64.1168 97.1435 64.1168 97.1435C64.1168 97.1435 72.8452 95.6335 82.5104 97.0846C92.1697 98.5338 100 102 100 102C100 102 96.539 94.1578 95.0921 84.4837C93.6432 74.8038 95.1509 66.0622 95.1509 66.0622C95.1509 66.0622 86.4206 67.5703 76.7593 66.1231Z" fill="#DF0000"/>
<path d="M19.0908 17.7178C19.0903 17.7181 19.0888 17.7186 19.0859 17.7207L17.6885 19.1182C17.6869 19.117 17.6837 19.1141 17.6787 19.1104C17.6685 19.1028 17.6509 19.0904 17.627 19.0732C17.579 19.0389 17.5039 18.9868 17.4043 18.9209C17.205 18.789 16.908 18.6031 16.5293 18.3984C15.7685 17.9874 14.6965 17.5087 13.4414 17.2246C10.9692 16.6651 7.7738 16.8466 4.72363 19.9014C2.53146 22.0969 1.1834 24.8586 1.01758 27.6875C0.853162 30.4944 1.84625 33.4526 4.49219 36.1025C6.15503 37.7679 8.64119 38.748 11.8164 39.3506C14.9869 39.9522 18.6893 40.1529 22.6855 40.375C29.5915 40.7588 37.3477 41.1954 44.0068 44.0967C41.0649 37.4751 40.6303 29.7041 40.2617 22.7744C40.0483 18.7616 39.8604 15.0395 39.2695 11.8516C38.6777 8.65804 37.707 6.15975 36.0459 4.49609C33.4 1.84624 30.4466 0.852963 27.6455 1.01758C24.8223 1.18358 22.0653 2.53295 19.873 4.72852C16.8225 7.78366 16.6412 10.9854 17.2002 13.4629C17.4839 14.72 17.9617 15.7937 18.3721 16.5557C18.5763 16.9348 18.7618 17.2329 18.8936 17.4326C18.9594 17.5324 19.0116 17.6082 19.0459 17.6562C19.063 17.6802 19.0764 17.6968 19.084 17.707C19.0878 17.7122 19.0896 17.7162 19.0908 17.7178ZM19.0908 17.7178L19.0918 17.7188V17.7178H19.0908ZM61.0625 63.0029C61.876 63.3104 62.8931 63.6776 64.0762 64.0693C67.2773 65.1292 71.7075 66.3759 76.6104 67.1123H76.6113C81.5306 67.8492 86.2013 67.8325 89.6357 67.6338C91.3551 67.5343 92.7702 67.3886 93.7578 67.2676C93.8326 67.2584 93.9047 67.2471 93.9746 67.2383C93.9657 67.309 93.9546 67.3822 93.9453 67.458C93.8244 68.4468 93.6794 69.8633 93.5801 71.585C93.3817 75.0246 93.3658 79.7033 94.1035 84.6318C94.8378 89.5408 96.0808 93.977 97.1387 97.1826C97.5298 98.3678 97.8961 99.3874 98.2031 100.202C97.39 99.8949 96.3735 99.528 95.1914 99.1367C91.9905 98.0771 87.5611 96.8312 82.6592 96.0957C77.738 95.3568 73.0664 95.3726 69.6318 95.5713C67.9124 95.6708 66.4973 95.8164 65.5098 95.9375C65.4346 95.9467 65.3622 95.9579 65.292 95.9668C65.3009 95.8961 65.313 95.8228 65.3223 95.7471C65.4431 94.7582 65.5882 93.3416 65.6875 91.6201C65.8735 88.3956 65.8995 84.0828 65.2959 79.4971L65.167 78.5762C64.4317 73.666 63.1871 69.2284 62.1289 66.0225C61.7375 64.8367 61.3696 63.8179 61.0625 63.0029ZM15.1348 56.085C18.6343 52.5803 25.3377 51.6153 29.8008 56.085C32.4635 58.7518 32.9484 62.137 32.7266 64.9639C32.616 66.3724 32.3306 67.6125 32.0723 68.501C31.9435 68.9439 31.8221 69.2967 31.7344 69.5352C31.6907 69.6538 31.6554 69.744 31.6318 69.8027C31.62 69.8321 31.611 69.854 31.6055 69.8672C31.6027 69.8738 31.6006 69.8785 31.5996 69.8809V69.8818L33.1504 71.0527L33.1533 71.0498C33.155 71.0485 33.1576 71.0471 33.1602 71.0449C33.1654 71.0406 33.1727 71.0348 33.1816 71.0273C33.1996 71.0124 33.2245 70.9904 33.2568 70.9629C33.3215 70.9078 33.4142 70.8282 33.5303 70.7246C33.7625 70.5173 34.0899 70.2143 34.4795 69.8262C35.2578 69.0508 36.2911 67.9272 37.3115 66.5322C38.9691 64.2662 40.6481 61.2054 41.0723 57.71L47.4814 64.1279C43.9888 64.5529 40.9319 66.2372 38.6689 67.8975C37.2762 68.9193 36.154 69.9531 35.3799 70.7324C34.9923 71.1226 34.6904 71.451 34.4834 71.6836C34.38 71.7998 34.3001 71.8923 34.2451 71.957C34.2176 71.9894 34.1956 72.0152 34.1807 72.0332C34.1734 72.0419 34.1673 72.0486 34.1631 72.0537C34.1609 72.0563 34.1595 72.0589 34.1582 72.0605C34.1575 72.0614 34.1567 72.0619 34.1562 72.0625V72.0635C34.159 72.0662 34.2057 72.1047 34.9316 72.6953L34.1553 72.0645L35.3281 73.6123H35.3291C35.3315 73.6113 35.3362 73.6092 35.3428 73.6064C35.3559 73.6009 35.3779 73.5919 35.4072 73.5801C35.466 73.5564 35.5562 73.5213 35.6748 73.4775C35.9129 73.3897 36.2648 73.2686 36.707 73.1396C37.594 72.8809 38.8322 72.5951 40.2383 72.4844C43.0597 72.2624 46.4383 72.7477 49.1006 75.4141C53.563 79.8834 52.6022 86.6005 49.1006 90.1074C45.5931 93.6202 41.2828 93.9551 37.6865 92.4238C34.0452 90.8731 31.1908 87.429 30.6963 83.4434L28.71 83.6758V83.6768C28.7102 83.6788 28.7113 83.6828 28.7119 83.6885C28.7131 83.7 28.7145 83.7192 28.7168 83.7451C28.7214 83.797 28.7276 83.8771 28.7344 83.9824C28.7479 84.1932 28.7626 84.5051 28.7656 84.8965C28.7716 85.6807 28.7305 86.7768 28.5439 88.0176C28.1682 90.5171 27.217 93.5003 24.9756 95.7451C22.4133 98.3109 15.7342 100.372 10.3096 94.9395C4.88343 89.505 6.94071 82.8143 9.50488 80.2461C11.746 78.0015 14.7237 77.0491 17.2188 76.6729C18.4575 76.486 19.5521 76.4452 20.335 76.4512C20.7255 76.4542 21.0367 76.4689 21.2471 76.4824C21.3522 76.4892 21.4326 76.4954 21.4844 76.5C21.5099 76.5023 21.5285 76.5047 21.54 76.5059C21.5454 76.5064 21.5496 76.5066 21.5518 76.5068H21.5537L21.5693 76.3623L21.7871 74.5205C17.8091 74.0256 14.3691 71.1679 12.8203 67.5195C11.2907 63.9161 11.6269 59.5982 15.1348 56.085ZM96.1338 10.7939C96.0898 10.9643 96.0473 11.1382 96.0068 11.3145C95.7268 12.5357 95.4922 14.0439 95.2773 15.7314C94.8502 19.0868 94.4803 23.3332 94.002 27.5947C93.5194 31.8934 92.9205 36.2722 92.0244 40.0498C91.1194 43.8649 89.9458 46.9061 88.4092 48.6602C86.1689 51.213 83.79 52.0551 81.6514 51.958C79.4766 51.8592 77.4171 50.7813 75.8867 49.2529C74.2052 47.4244 73.8007 44.8028 73.8877 42.2305C73.9307 40.9577 74.0924 39.748 74.2471 38.7246C74.3224 38.226 74.4011 37.7395 74.457 37.3477C74.512 36.9623 74.5587 36.58 74.5576 36.2734L74.5518 34.7178L73.1387 35.3691C72.8632 35.4962 72.6305 35.7026 72.4561 35.8789C72.2663 36.0707 72.0705 36.305 71.875 36.5615C71.4832 37.0755 71.0437 37.7428 70.5859 38.499C69.6678 40.0159 68.634 41.9588 67.6953 43.9023C66.7578 45.8436 65.9016 47.8137 65.3496 49.3857C65.2225 49.7478 65.1095 50.0968 65.0137 50.4248L56.5645 41.9639C56.8932 41.8676 57.2434 41.7548 57.6064 41.627C59.1763 41.074 61.1437 40.2174 63.082 39.2783C65.0226 38.3382 66.962 37.3024 68.4766 36.3828C69.2319 35.9242 69.8988 35.4843 70.4121 35.0918C70.6683 34.8959 70.9012 34.6998 71.0928 34.5098C71.269 34.3349 71.4758 34.1019 71.6025 33.8262L72.2344 32.4512L70.7217 32.4092C70.127 32.3927 69.1395 32.5249 68.1143 32.6436C67.032 32.7688 65.7703 32.9002 64.4678 32.9248C61.8785 32.9737 59.4141 32.5914 57.8838 31.2158L57.7393 31.0791C56.2124 29.5466 55.1363 27.4825 55.0371 25.3027C54.9396 23.1581 55.7806 20.7737 58.3291 18.5303L58.3281 18.5293C60.0796 16.9901 63.1167 15.8157 66.9258 14.9092C70.6978 14.0115 75.0709 13.411 79.3633 12.9277C83.618 12.4487 87.8581 12.0789 91.208 11.6514C92.8929 11.4363 94.3988 11.2012 95.6182 10.9209C95.7929 10.8807 95.9649 10.8377 96.1338 10.7939Z" stroke="white" stroke-width="2"/>
</svg>
