<svg width="77" height="77" viewBox="0 0 77 77" fill="none" xmlns="http://www.w3.org/2000/svg">
<path d="M38.4375 1C50.5806 1 55.782 10.7928 55.7822 16.5967C55.7822 21.6263 53.5112 26.0057 51.1738 29.1719C50.0104 30.7478 48.845 32.0022 47.9727 32.8613C47.537 33.2904 47.1759 33.62 46.9258 33.8398C46.801 33.9495 46.7041 34.032 46.6396 34.0859C46.6074 34.1129 46.5827 34.133 46.5674 34.1455C46.5598 34.1517 46.554 34.1566 46.5508 34.1592C46.5495 34.1603 46.5483 34.1608 46.5479 34.1611C46.5479 34.1611 46.5481 34.1613 46.5918 34.2158L47.7881 35.7305C52.814 31.8155 59.8557 31.1718 65.6523 33.5098C71.4036 35.8296 75.8749 41.0599 75.875 48.9209C75.875 56.7728 69.4442 65.3916 59.4043 65.3916C53.4039 65.3916 49.0713 62.1252 46.1904 58.7529C44.7532 57.0705 43.6977 55.3836 43.002 54.1162C42.6548 53.4838 42.3984 52.9585 42.2305 52.5947C42.1467 52.4132 42.085 52.2717 42.0449 52.1777C42.025 52.1311 42.0102 52.0957 42.001 52.0732L41.9893 52.0439L41.9854 52.0449L40.0645 52.3115L41.0596 52.4131C40.0647 52.3116 40.0645 52.3121 40.0645 52.3125V52.3164C40.0642 52.3192 40.0639 52.3234 40.0635 52.3281C40.0626 52.3375 40.0611 52.3505 40.0596 52.3672C40.0565 52.4011 40.052 52.4506 40.0469 52.5137C40.0367 52.6398 40.0232 52.8226 40.0098 53.0566C39.9829 53.5252 39.9563 54.1996 39.9541 55.0332C39.9498 56.6991 40.0449 59.0116 40.4443 61.5996C41.1409 66.1129 42.7798 71.5743 46.5352 75.875H30.3398C34.0954 71.573 35.735 66.1117 36.4316 61.5986C36.831 59.0109 36.9262 56.6988 36.9219 55.0332C36.9197 54.1995 36.8921 53.5252 36.8652 53.0566C36.8518 52.8226 36.8383 52.6398 36.8281 52.5137C36.823 52.4506 36.8195 52.4011 36.8164 52.3672C36.8149 52.3505 36.8134 52.3375 36.8125 52.3281C36.812 52.3234 36.8118 52.3192 36.8115 52.3164C36.8114 52.3152 36.8106 52.3143 36.8105 52.3135V52.3125C36.8105 52.3121 36.8103 52.3115 35.8154 52.4131L36.8105 52.3115L34.8906 52.0449C34.8883 52.044 34.8871 52.0441 34.8867 52.0439L34.8857 52.0449L34.8848 52.0488C34.8828 52.0536 34.8796 52.062 34.875 52.0732C34.8658 52.0957 34.851 52.131 34.8311 52.1777C34.791 52.2717 34.7284 52.4131 34.6445 52.5947C34.4766 52.9585 34.2211 53.4839 33.874 54.1162C33.1783 55.3836 32.1228 57.0704 30.6855 58.7529C27.8047 62.1252 23.4712 65.3916 17.4707 65.3916C7.43473 65.3915 1 56.7764 1 48.9209C1.00006 41.06 5.47139 35.8296 11.2227 33.5098C17.0195 31.1716 24.0619 31.8152 29.0879 35.7305L30.3271 34.1611C30.3267 34.1607 30.3256 34.1603 30.3242 34.1592C30.321 34.1566 30.3153 34.1518 30.3076 34.1455C30.2923 34.133 30.2685 34.1129 30.2363 34.0859C30.1719 34.032 30.0742 33.9497 29.9492 33.8398C29.6992 33.62 29.3379 33.2903 28.9023 32.8613C28.03 32.0022 26.8655 30.7477 25.7021 29.1719C23.3647 26.0057 21.0928 21.6265 21.0928 16.5967C21.093 10.7967 26.2947 1.0001 38.4375 1Z" stroke="white" stroke-width="2"/>
</svg>
