<svg width="68" height="90" viewBox="0 0 68 90" fill="none" xmlns="http://www.w3.org/2000/svg">
<path d="M34.1301 3.46429C34.7204 4.81278 35.5883 6.71005 36.7258 8.97113C39.0447 13.5802 42.4903 19.7165 46.9944 25.81L46.9954 25.811C51.5116 31.9157 56.5753 36.945 60.5042 40.4448C62.4702 42.1961 64.1564 43.5678 65.3528 44.5034C65.6562 44.7406 65.9281 44.95 66.1653 45.1303C65.9281 45.3106 65.6562 45.52 65.3528 45.7573C64.1564 46.6926 62.4702 48.0636 60.5042 49.8149C56.8207 53.096 52.14 57.7225 47.8479 63.3217L46.9944 64.4545C42.4901 70.5461 39.0447 76.6818 36.7258 81.2905C35.5883 83.5512 34.7204 85.4479 34.1301 86.7963C33.5399 85.448 32.6728 83.551 31.5354 81.2905C29.2165 76.6818 25.7702 70.5462 21.2659 64.4545C16.7495 58.3453 11.6851 53.3148 7.7561 49.8149C5.79034 48.0638 4.10479 46.6926 2.90845 45.7573C2.6047 45.5198 2.33237 45.3097 2.09497 45.1293C2.3322 44.949 2.605 44.7407 2.90845 44.5034C4.10478 43.5678 5.7902 42.1959 7.7561 40.4448C11.685 36.945 16.7496 31.9159 21.2659 25.811V25.81C25.7701 19.7163 29.2165 13.5803 31.5354 8.97113C32.6729 6.71014 33.5399 4.81277 34.1301 3.46429Z" stroke="white" stroke-width="2"/>
</svg>
