<svg width="72" height="76" viewBox="0 0 72 76" fill="#fb2c36" xmlns="http://www.w3.org/2000/svg">
<path d="M52.2754 1C57.1495 1 61.7415 2.56647 65.1016 5.55371C68.4451 8.52644 70.6347 12.9626 70.6348 18.8555C70.6348 22.6255 68.9087 26.4994 66.0654 30.6387C63.2254 34.7734 59.3652 39.043 55.252 43.6191C47.806 51.9031 39.5434 61.162 35.7988 72.0049C31.9392 61.1569 23.6824 51.8982 16.2686 43.6133C12.1753 39.0392 8.34425 34.7712 5.52832 30.6387C2.70953 26.5019 1 22.6283 1 18.8555C1.00011 12.9626 3.18966 8.52644 6.5332 5.55371C9.89323 2.56649 14.4853 1 19.3594 1C26.2073 1.00003 30.0313 4.40316 32.1875 7.81836C33.2758 9.54218 33.9387 11.2741 34.3291 12.5791C34.5238 13.2299 34.6494 13.7703 34.7256 14.1436C34.7636 14.3297 34.7898 14.4739 34.8057 14.5693C34.8136 14.6168 34.8189 14.6526 34.8223 14.6748C34.8239 14.6859 34.8255 14.6938 34.8262 14.6982C34.8264 14.7001 34.8261 14.7015 34.8262 14.7021L34.833 14.7012H36.8018C36.8085 14.7021 36.8086 14.7021 36.8086 14.7021V14.6982C36.8092 14.6938 36.8109 14.6859 36.8125 14.6748C36.8158 14.6526 36.8212 14.6168 36.8291 14.5693C36.845 14.4739 36.8712 14.3297 36.9092 14.1436C36.9854 13.7703 37.111 13.2299 37.3057 12.5791C37.6961 11.2741 38.3589 9.54217 39.4473 7.81836C41.6035 4.40316 45.4275 1.00002 52.2754 1Z" stroke="white" stroke-width="2"/>
</svg>
