<svg width="69" height="83" viewBox="0 0 69 83" fill="none" xmlns="http://www.w3.org/2000/svg">
<path d="M34.2578 2.80176C34.5156 3.28862 34.8111 3.79569 35.1367 4.31543C36.1431 5.92185 37.5117 7.79592 39.1055 9.85547C42.281 13.959 46.4656 18.9419 50.584 24.1035C54.7258 29.2946 58.8424 34.7164 61.9844 39.8164C65.0477 44.7889 67.1018 49.3259 67.4473 52.9785L67.4746 53.3291C67.819 58.6752 66.0977 62.3375 63.5352 64.6777C60.9471 67.0413 57.4026 68.1437 53.9766 68.1484C49.9427 67.9914 46.528 65.4538 43.7979 62.5322C42.4426 61.0819 41.2903 59.575 40.3447 58.292C39.8799 57.6613 39.4463 57.0587 39.083 56.5742C38.7235 56.0948 38.3801 55.6581 38.0772 55.3574L36.9736 54.2627L36.4346 55.7207C36.3067 56.0665 36.2776 56.4666 36.2793 56.8281C36.2811 57.2113 36.3197 57.6521 36.3838 58.1299C36.5121 59.0866 36.7543 60.2673 37.0752 61.5762C37.7181 64.1986 38.6958 67.4128 39.7803 70.5293C40.8639 73.6434 42.0645 76.6894 43.1582 78.9697C43.5704 79.829 43.9769 80.5998 44.3652 81.2314H24.1582C24.5465 80.5999 24.9522 79.8289 25.3643 78.9697C26.458 76.6894 27.6586 73.6434 28.7422 70.5293C29.8267 67.4127 30.8044 64.1986 31.4473 61.5762C31.7681 60.2673 32.0103 59.0866 32.1387 58.1299C32.2028 57.6521 32.2413 57.2113 32.2432 56.8281C32.2449 56.4666 32.2157 56.0665 32.0879 55.7207L31.5625 54.2998L30.4629 55.3408C29.8357 55.9342 28.9429 57.1018 27.9365 58.3711C26.8945 59.6853 25.6524 61.2154 24.2451 62.6768C21.3846 65.6471 18.0493 68.1092 14.5566 68.1484C11.1266 68.1469 7.57664 67.0453 4.98536 64.6797C2.42125 62.3389 0.699608 58.675 1.04395 53.3291C1.28607 49.6169 3.37195 44.9469 6.53418 39.8135C9.67615 34.713 13.7928 29.2916 17.9346 24.1006C22.0529 18.939 26.2376 13.9565 29.4131 9.85352C31.0069 7.79423 32.3754 5.9205 33.3818 4.31445C33.707 3.79549 34.0002 3.28793 34.2578 2.80176Z" stroke="white" stroke-width="2"/>
</svg>
